<?xml version="1.0" standalone="no"?>
<!DOCTYPE svg PUBLIC "-//W3C//DTD SVG 1.1//EN" "http://www.w3.org/Graphics/SVG/1.1/DTD/svg11.dtd" >
<svg xmlns="http://www.w3.org/2000/svg">
<metadata>
This is a custom SVG webfont generated by Font Squirrel.
Copyright   : Copyright 19901993 Bitstream Inc  All rights reserved
</metadata>
<defs>
<font id="CompactaRoman" horiz-adv-x="782" >
<font-face units-per-em="2048" ascent="1638" descent="-410" />
<missing-glyph horiz-adv-x="391" />
<glyph unicode=" "  horiz-adv-x="391" />
<glyph unicode="&#x09;" horiz-adv-x="391" />
<glyph unicode="&#xa0;" horiz-adv-x="391" />
<glyph unicode="!" horiz-adv-x="403" d="M59 0v281h285v-281h-285zM61 1663h283l-47 -1262h-188z" />
<glyph unicode="&#x22;" horiz-adv-x="643" d="M86 879v557h164v-557h-164zM395 879v557h164v-557h-164z" />
<glyph unicode="#" horiz-adv-x="1575" d="M70 428l61 172h297l90 252h-315l61 172h316l155 436h191l-154 -436h250l156 436h190l-154 -436h291l-59 -172h-293l-90 -252h309l-61 -172h-307l-156 -434h-191l156 434h-252l-158 -434h-190l156 434h-299zM618 598h256l91 254h-256z" />
<glyph unicode="$" d="M63 324v362h285v-403q0 -37 11 -53.5t34 -16.5q24 0 34.5 15.5t10.5 54.5v350q0 43 -11 61.5t-52 42.5l-185 107q-68 39 -97.5 96.5t-29.5 163.5v235q0 202 48.5 262t187.5 68v117h188v-117q135 -8 183.5 -65.5t48.5 -264.5v-249h-283v288q0 40 -10 55t-35 15 q-22 0 -32.5 -16.5t-10.5 -53.5v-254q0 -48 13 -66.5t51 -39.5l174 -100q71 -41 102 -96.5t31 -155.5v-342q0 -210 -47.5 -266t-184.5 -64v-121h-188v119q-138 8 -187 68t-49 264z" />
<glyph unicode="%" horiz-adv-x="1380" d="M70 1006v428q0 160 43 198.5t196 38.5q155 0 197.5 -41t42.5 -196v-428q0 -159 -43 -199.5t-197 -40.5q-152 0 -195.5 40t-43.5 200zM268 983q0 -23 10.5 -35t30.5 -12q22 0 31.5 11t9.5 36v469q0 25 -10 36t-33 11q-20 0 -29.5 -11t-9.5 -36v-469zM344 -8l528 1679h164 l-528 -1679h-164zM831 231v428q0 160 43 199t197 39q156 0 198 -41.5t42 -196.5v-428q0 -158 -43 -198.5t-197 -40.5t-197 40t-43 199zM1030 209q0 -23 10.5 -35t30.5 -12q21 0 31 11.5t10 35.5v469q0 26 -10 37.5t-33 11.5q-20 0 -29.5 -12t-9.5 -37v-469z" />
<glyph unicode="&#x26;" horiz-adv-x="801" d="M63 332v309q0 123 29.5 179t100.5 79q-69 19 -99.5 76t-30.5 170v188q0 216 58 273t221 57h287v-217h-211q-41 0 -56.5 -14t-15.5 -56v-301q0 -37 11 -50t44 -13h35v293h277v-293h88v-234h-88v-778h-275q-241 0 -308 60.5t-67 271.5zM346 295q0 -39 13 -56.5t40 -17.5h39 v559h-32q-35 0 -47.5 -13.5t-12.5 -49.5v-422z" />
<glyph unicode="'" horiz-adv-x="334" d="M86 879v557h164v-557h-164z" />
<glyph unicode="(" horiz-adv-x="434" d="M72 -8v1403q0 160 53.5 218t189.5 58h101l-1 -219q-40 -3 -55.5 -17.5t-15.5 -72.5v-1337q0 -55 15 -70.5t57 -20.5v-219h-101q-137 0 -190 58t-53 219z" />
<glyph unicode=")" horiz-adv-x="434" d="M18 -66q38 2 55 18t17 52v21v1366q0 29 -17.5 44t-53.5 17l-1 219h101q137 0 190 -57.5t53 -218.5v-1403q0 -160 -53.5 -218.5t-189.5 -58.5h-101v219z" />
<glyph unicode="*" horiz-adv-x="721" d="M33 1364l49 154l199 -66v211h161v-211l197 66l49 -154l-201 -64l125 -167l-131 -99l-123 172l-120 -172l-132 94l127 170z" />
<glyph unicode="+" horiz-adv-x="1706" d="M254 528v166h514v527h170v-527h514v-166h-514v-528h-170v528h-514z" />
<glyph unicode="," horiz-adv-x="391" d="M78 0v293h235v-311q0 -142 -54.5 -203.5t-180.5 -62.5v134q55 5 77.5 30t22.5 83v37h-100z" />
<glyph unicode="-" horiz-adv-x="512" d="M55 573v220h400v-220h-400z" />
<glyph unicode="." horiz-adv-x="391" d="M78 0v293h235v-293h-235z" />
<glyph unicode="/" horiz-adv-x="543" d="M-12 -190l387 1855h160l-385 -1855h-162z" />
<glyph unicode="0" d="M63 324v1015q0 221 59.5 276.5t268.5 55.5q213 0 271.5 -57.5t58.5 -274.5v-1015q0 -219 -59 -275.5t-267 -56.5q-214 0 -273 57.5t-59 274.5zM346 285q0 -38 11 -54t36 -16q24 0 33.5 15t9.5 55v1093q0 39 -11 55.5t-36 16.5q-23 0 -33 -16.5t-10 -55.5v-1093z" />
<glyph unicode="1" horiz-adv-x="557" d="M14 1227l1 221q85 9 137.5 66t60.5 149h229v-1663h-284v1227h-144z" />
<glyph unicode="2" d="M63 1090v249q0 224 59.5 278t268.5 54q217 0 274.5 -61.5t57.5 -270.5v-213q0 -60 -11.5 -113t-37.5 -114l-295 -674h344v-225h-655v225l325 742q24 52 32 90t9 85v236q0 41 -10 56.5t-35 15.5q-23 0 -33 -16.5t-10 -55.5v-288h-283z" />
<glyph unicode="3" d="M61 324v352h285v-391q0 -39 10.5 -54.5t34.5 -15.5q23 0 33 15.5t10 54.5v424q0 33 -15.5 51t-43.5 18h-101v240h101q34 0 46.5 16t12.5 66v278q0 40 -10.5 56t-34.5 16q-23 0 -33 -16t-10 -56v-256h-285v217q0 221 61 276.5t271 55.5q205 0 265.5 -58.5t60.5 -273.5 v-180q0 -124 -31 -182t-104 -80q75 -23 105 -76t30 -186v-311q0 -219 -61.5 -275.5t-264.5 -56.5q-212 0 -272 57.5t-60 274.5z" />
<glyph unicode="4" d="M25 479v219l215 965h419v-965h78v-219h-78v-479h-278v479h-356zM281 698h108v670h-20z" />
<glyph unicode="5" d="M66 324v374h284v-413q0 -40 10 -55t35 -15q23 0 33 15t10 55v612q0 38 -10 54t-33 16q-20 0 -32.5 -14.5t-12.5 -37.5v-55h-284v803h641v-217h-357v-295q38 30 78.5 44.5t85.5 14.5q107 0 158 -68.5t51 -211.5v-606q0 -219 -61 -275.5t-263 -56.5q-213 0 -273 58t-60 274 z" />
<glyph unicode="6" d="M63 324v1015q0 218 61.5 275t272.5 57q203 0 263.5 -57.5t60.5 -274.5v-249h-285v290q0 39 -10.5 54.5t-34.5 15.5q-23 0 -33 -14.5t-10 -55.5v-436q28 30 68.5 46t87.5 16q108 0 162.5 -73.5t54.5 -219.5v-389q0 -219 -60.5 -275.5t-263.5 -56.5q-212 0 -273 57.5 t-61 274.5zM348 285q0 -41 10 -55.5t33 -14.5q25 0 35 15t10 55v407q0 38 -10.5 54t-34.5 16t-33.5 -13.5t-9.5 -56.5v-407z" />
<glyph unicode="7" horiz-adv-x="702" d="M68 1446v217h565v-217l-258 -1446h-291l264 1446h-280z" />
<glyph unicode="8" d="M63 324v329q0 118 29 172t101 76q-69 14 -99.5 68.5t-30.5 167.5v202q0 221 61.5 276.5t270.5 55.5q205 0 265.5 -58.5t60.5 -273.5v-202q0 -111 -30.5 -165.5t-100.5 -70.5q72 -24 101.5 -78t29.5 -170v-329q0 -219 -61 -275.5t-273 -56.5q-202 0 -263 57t-61 275z M346 287q0 -38 11 -55t34 -17q24 0 34.5 16t10.5 56v426q0 36 -10.5 52.5t-34.5 16.5q-25 0 -35 -14t-10 -55v-426zM346 1098q0 -37 11 -53.5t34 -16.5q25 0 35 15.5t10 54.5v280q0 38 -10.5 55t-34.5 17t-34.5 -15t-10.5 -57v-280z" />
<glyph unicode="9" d="M61 324v249h285v-288q0 -39 10.5 -55.5t34.5 -16.5q23 0 33 15.5t10 56.5v434q-30 -30 -69.5 -46t-85.5 -16q-109 0 -163.5 73.5t-54.5 219.5v389q0 219 62 275.5t264 56.5q212 0 272 -57.5t60 -274.5v-1015q0 -218 -61 -275t-273 -57q-203 0 -263.5 57.5t-60.5 274.5z M346 971q0 -38 10.5 -54t34.5 -16t33.5 14.5t9.5 55.5v407q0 41 -10 56.5t-33 15.5q-24 0 -34.5 -15t-10.5 -57v-407z" />
<glyph unicode=":" horiz-adv-x="414" d="M88 0v293h238v-293h-238zM88 983v293h238v-293h-238z" />
<glyph unicode=";" horiz-adv-x="414" d="M88 0v293h238v-311q0 -142 -56 -203.5t-182 -62.5v134q55 5 77.5 30t22.5 83v37h-100zM88 983v293h238v-293h-238z" />
<glyph unicode="&#x3c;" horiz-adv-x="1706" d="M264 530v160l1178 486v-185l-934 -381l934 -381v-182z" />
<glyph unicode="=" horiz-adv-x="1706" d="M254 322v165h1198v-165h-1198zM254 733v168h1198v-168h-1198z" />
<glyph unicode="&#x3e;" horiz-adv-x="1706" d="M264 47v182l934 381l-934 381v185l1178 -486v-160z" />
<glyph unicode="?" horiz-adv-x="772" d="M57 1087v252q0 215 59.5 273.5t260.5 58.5q211 0 274.5 -60.5t63.5 -246.5v-215q0 -70 -13.5 -130.5t-44.5 -123.5l-88 -183l-6 -12q-31 -57 -31 -139v-176h-282v213q0 95 48 189q5 9 7 14l101 205q13 29 19.5 62t6.5 75v235q0 40 -11 56t-36 16q-24 0 -34.5 -16.5 t-10.5 -55.5v-291h-283zM248 0v276h284v-276h-284z" />
<glyph unicode="@" horiz-adv-x="2048" d="M98 522q0 165 52 313.5t153 272.5q147 179 353.5 272t459.5 93q166 0 315 -45.5t255 -127.5q132 -102 198 -235.5t66 -300.5q0 -162 -65 -302t-185 -237q-69 -55 -150 -83.5t-168 -28.5q-106 0 -157 40.5t-51 125.5v4q-55 -87 -128 -127.5t-176 -40.5q-152 0 -232.5 86.5 t-80.5 249.5q0 233 138 395t333 162q89 0 149 -34.5t99 -107.5l55 107h154l-148 -586q-1 -5 -2 -12q-6 -28 -6 -37q0 -38 26.5 -61t69.5 -23q51 0 107.5 30.5t105.5 84.5q72 76 110 177.5t38 215.5q0 253 -187 411t-489 158q-138 0 -256 -31t-215 -94q-181 -113 -279 -291 t-98 -395q0 -312 209.5 -499t558.5 -187q166 0 323.5 49t291.5 142l67 -99q-149 -113 -318.5 -170t-355.5 -57q-192 0 -351 48t-281 142q-155 118 -231.5 275.5t-76.5 357.5zM741 444q0 -98 45.5 -151t128.5 -53q90 0 163.5 66.5t99.5 172.5l55 228q-14 84 -61.5 130 t-122.5 46q-127 0 -217.5 -128.5t-90.5 -310.5z" />
<glyph unicode="A" horiz-adv-x="784" d="M33 0l164 1663h378l168 -1663h-276l-21 354h-118l-21 -354h-274zM338 575h96l-43 758h-8z" />
<glyph unicode="B" horiz-adv-x="797" d="M72 0v1663h350q180 0 243.5 -60t63.5 -235v-219q0 -108 -29 -165t-96 -85q69 -31 97 -86t28 -172v-305q0 -218 -65 -277t-269 -59h-323zM356 772l1 -553q5 -1 10.5 -1.5t15.5 -0.5q35 0 49 16.5t14 57.5v411q0 40 -14.5 56t-50.5 16q-4 0 -12.5 -1t-12.5 -1zM356 1016 q4 0 12.5 -1t12.5 -1q36 0 50.5 16.5t14.5 56.5v289q0 38 -13 54t-46 16h-31v-430z" />
<glyph unicode="C" horiz-adv-x="772" d="M63 322v1019q0 222 58.5 277t269.5 55q215 0 272.5 -57t57.5 -275v-245h-285v284q0 40 -11 56t-36 16q-23 0 -33 -16.5t-10 -55.5v-1099q0 -38 11 -54t36 -16q24 0 33.5 15t9.5 55v424h285v-383q0 -220 -59 -277t-267 -57q-214 0 -273 57.5t-59 276.5z" />
<glyph unicode="D" horiz-adv-x="793" d="M72 0v1663h348q196 0 252.5 -58t56.5 -280v-985q0 -225 -56.5 -282.5t-250.5 -57.5h-350zM356 217h25q38 0 50.5 14t12.5 74v10v1041q0 62 -13 76t-54 14h-21v-1229z" />
<glyph unicode="E" horiz-adv-x="590" d="M72 0v1663h454v-217h-170v-424h170v-219h-170v-584h170v-219h-454z" />
<glyph unicode="F" horiz-adv-x="582" d="M76 0v1663h454v-217h-170v-424h170v-219h-170v-803h-284z" />
<glyph unicode="G" horiz-adv-x="788" d="M63 274v1065q0 221 61 277.5t273 56.5q208 0 268 -58t60 -276v-245h-285v286q0 43 -10.5 57.5t-36.5 14.5q-25 0 -36 -15t-11 -57v-1099q0 -39 11.5 -54.5t37.5 -15.5q25 0 35 14.5t10 55.5v362h-43v219h328v-862h-119l-47 96q-45 -60 -99 -84t-145 -24q-135 0 -193.5 65 t-58.5 221z" />
<glyph unicode="H" horiz-adv-x="801" d="M72 0v1663h282v-635h92v635h283v-1663h-283v809h-92v-809h-282z" />
<glyph unicode="I" horiz-adv-x="428" d="M72 0v1663h284v-1663h-284z" />
<glyph unicode="J" horiz-adv-x="743" d="M37 319v371h258v-409q0 -39 11 -55.5t36 -16.5q23 0 33 15.5t10 56.5v1382h285v-1344q0 -217 -58.5 -274t-263.5 -57q-194 0 -252.5 57.5t-58.5 273.5z" />
<glyph unicode="K" d="M72 0v1663h276v-664l10 2l103 662h280l-161 -735l182 -928h-285l-119 807h-10v-807h-276z" />
<glyph unicode="L" horiz-adv-x="555" d="M72 0v1663h284v-1444h170v-219h-454z" />
<glyph unicode="M" horiz-adv-x="1030" d="M72 0v1663h331l105 -797h14l105 797h331v-1663h-253l10 983h-17l-108 -983h-150l-108 983h-17l11 -983h-254z" />
<glyph unicode="N" horiz-adv-x="809" d="M72 0v1663h254l155 -829h13l-5 829h246v-1663h-252l-157 852h-13l6 -852h-247z" />
<glyph unicode="O" d="M63 322v1019q0 222 58.5 277t269.5 55q215 0 272.5 -57t57.5 -275v-1019q0 -220 -59 -277t-267 -57q-214 0 -273 57.5t-59 276.5zM346 281q0 -38 11 -54t36 -16q24 0 33.5 15t9.5 55v1099q0 40 -11 56t-36 16q-23 0 -33 -16.5t-10 -55.5v-1099z" />
<glyph unicode="P" horiz-adv-x="780" d="M72 0v1663h348q194 0 251.5 -58t57.5 -280v-397q0 -225 -58 -282.5t-249 -57.5h-66v-588h-284zM356 807h25q40 0 52.5 15.5t12.5 84.5v434q0 75 -13 90t-56 15h-21v-639z" />
<glyph unicode="Q" d="M63 324v1017q0 219 61.5 275.5t270.5 56.5q205 0 265.5 -58.5t60.5 -273.5v-1017q0 -203 -48 -261.5t-181 -66.5l12 -8q47 -8 79 -11.5t60 -3.5q16 0 56 4h6l-111 -178q-86 15 -163 62.5t-152 132.5q-125 14 -170.5 72t-45.5 258zM346 283q0 -37 11 -53.5t34 -16.5 q25 0 35 15.5t10 54.5v1099q0 39 -10.5 54.5t-34.5 15.5q-25 0 -35 -14.5t-10 -55.5v-1099z" />
<glyph unicode="R" horiz-adv-x="797" d="M72 0v1663h348q186 0 247.5 -62.5t61.5 -275.5v-217q0 -140 -28.5 -197t-100.5 -90q70 -27 99.5 -83.5t29.5 -172.5v-565h-283v616q0 41 -15.5 58.5t-51.5 17.5q-4 0 -11.5 -1t-11.5 -1v-690h-284zM356 938q5 0 13.5 -1t11.5 -1q38 0 51.5 17.5t13.5 68.5v319 q0 75 -14 90t-57 15h-19v-508z" />
<glyph unicode="S" horiz-adv-x="780" d="M59 319v367h287v-405q0 -38 11.5 -55t35.5 -17q22 0 31.5 16.5t9.5 55.5v352q0 45 -12 63t-51 41l-183 107q-69 40 -99 98t-30 162v237q0 216 59 274t271 58q209 0 268.5 -55.5t59.5 -276.5v-251h-283v292q0 38 -11 54t-36 16q-22 0 -31.5 -15.5t-9.5 -54.5v-258 q0 -45 13 -64.5t51 -41.5l174 -100q71 -41 102 -96.5t31 -155.5v-347q0 -222 -58 -276.5t-272 -54.5q-209 0 -268.5 57.5t-59.5 273.5z" />
<glyph unicode="T" horiz-adv-x="600" d="M18 1442v221h564v-221h-140v-1442h-284v1442h-140z" />
<glyph unicode="U" horiz-adv-x="788" d="M66 319v1344h284v-1382q0 -39 10.5 -55.5t34.5 -16.5t33.5 15.5t9.5 56.5v1382h285v-1344q0 -217 -58.5 -274t-267.5 -57q-214 0 -272.5 57.5t-58.5 273.5z" />
<glyph unicode="V" horiz-adv-x="719" d="M18 1663h275l61 -1126h11l69 1126h268l-178 -1663h-327z" />
<glyph unicode="W" horiz-adv-x="1071" d="M-16 1663h276l64 -979h14l76 979h248l88 -979h14l51 979h268l-157 -1663h-293l-82 977h-14l-80 -977h-297z" />
<glyph unicode="X" horiz-adv-x="764" d="M37 0l127 885l-119 778h281l71 -596h11l59 596h254l-117 -778l131 -885h-280l-76 741h-8l-72 -741h-262z" />
<glyph unicode="Y" horiz-adv-x="680" d="M-4 1663h276l74 -641l68 641h268l-188 -991v-672h-295v672z" />
<glyph unicode="Z" horiz-adv-x="618" d="M33 0v233l239 1205h-209v225h500v-225l-239 -1205h239v-233h-530z" />
<glyph unicode="[" horiz-adv-x="449" d="M72 -276v1939h360v-219h-88v-1501h88v-219h-360z" />
<glyph unicode="\" horiz-adv-x="543" d="M-6 1665h160l387 -1855h-162z" />
<glyph unicode="]" horiz-adv-x="449" d="M18 -57h86v1501h-86v219h359v-1939h-359v219z" />
<glyph unicode="^" horiz-adv-x="2048" d="M418 899l497 561h218l495 -561h-207l-397 397l-399 -397h-207z" />
<glyph unicode="_" horiz-adv-x="1024" d="M0 -311h1024v-172h-1024v172z" />
<glyph unicode="`" horiz-adv-x="1024" d="M299 1651h225l80 -217h-180z" />
<glyph unicode="a" horiz-adv-x="678" d="M53 297v231q0 79 26 123.5t91 83.5l205 119v252q0 39 -9 53.5t-30 14.5t-30 -15.5t-9 -52.5v-207h-244v203q0 160 55 211t228 51q174 0 229.5 -52.5t55.5 -209.5v-1102h-246v55q-31 -30 -69.5 -46.5t-80.5 -16.5q-94 0 -133 62t-39 243zM297 250q0 -38 9.5 -54t31.5 -16 q20 0 28.5 14.5t8.5 55.5v375l-41 -25q-19 -11 -28 -27.5t-9 -40.5v-18v-264z" />
<glyph unicode="b" horiz-adv-x="694" d="M68 0v1663h243v-365q32 32 68 49t72 17q99 0 140.5 -65t41.5 -252v-736q0 -182 -41 -250.5t-135 -68.5q-41 0 -78 16.5t-68 48.5v-57h-243zM311 262q0 -37 9 -51t30 -14t30 14t9 51v832q0 35 -8.5 50t-28.5 15q-22 0 -31.5 -13.5t-9.5 -51.5v-832z" />
<glyph unicode="c" horiz-adv-x="672" d="M53 252v850q0 160 55 211t228 51q174 0 229.5 -52.5t55.5 -209.5v-299h-246v303q0 39 -9 53.5t-30 14.5q-22 0 -30.5 -13.5t-8.5 -54.5v-856q0 -39 9 -54.5t30 -15.5t30 14t9 56v332h246v-330q0 -158 -55.5 -209t-233.5 -51q-171 0 -225 51.5t-54 208.5z" />
<glyph unicode="d" horiz-adv-x="694" d="M61 311v736q0 188 42 252.5t143 64.5q35 0 71 -17.5t66 -48.5v365h244v-1663h-244v57q-29 -30 -65.5 -46.5t-73.5 -16.5q-100 0 -141.5 64.5t-41.5 252.5zM305 262q0 -37 8.5 -51t28.5 -14q22 0 31.5 15t9.5 50v832q0 38 -8.5 51.5t-30.5 13.5q-20 0 -29.5 -15.5 t-9.5 -49.5v-832z" />
<glyph unicode="e" horiz-adv-x="672" d="M53 252v850q0 160 55 211t228 51q174 0 229.5 -52.5t55.5 -209.5v-465h-324v-387q0 -39 9 -54.5t30 -15.5t30 14t9 56v252h246v-250q0 -158 -55.5 -209t-233.5 -51q-171 0 -225 51.5t-54 208.5zM297 825h78v281q0 37 -8.5 52.5t-28.5 15.5q-23 0 -32 -14t-9 -54v-281z " />
<glyph unicode="f" horiz-adv-x="440" d="M16 1167v189h64v65q0 146 51 198t180 52h125v-186h-65q-23 0 -34 -16.5t-11 -49.5v-63h110v-189h-110v-1167h-246v1167h-64z" />
<glyph unicode="g" horiz-adv-x="686" d="M53 311v736q0 188 42 252.5t143 64.5q35 0 71 -17.5t66 -48.5v56h243v-1438q0 -133 -50.5 -183t-196.5 -50h-308v188h244q7 0 15.5 1t9.5 1q24 0 33.5 11.5t9.5 45.5v127q-29 -30 -65.5 -46.5t-73.5 -16.5q-99 0 -141 65t-42 252zM297 264q0 -37 8.5 -51t28.5 -14 q23 0 32 13t9 52v830q0 36 -9 50.5t-30 14.5t-30 -14t-9 -51v-830z" />
<glyph unicode="h" horiz-adv-x="700" d="M66 0v1663h245v-365q33 33 67.5 49.5t70.5 16.5q100 0 142 -65.5t42 -251.5v-1047h-246v1096q0 37 -8.5 51t-28.5 14q-21 0 -30 -14t-9 -51v-1096h-245z" />
<glyph unicode="i" horiz-adv-x="379" d="M68 0v1356h243v-1356h-243zM68 1468v195h243v-195h-243z" />
<glyph unicode="j" horiz-adv-x="379" d="M-78 -131h80q33 0 49.5 14t16.5 41v19v1413h245v-1397q0 -180 -50 -228t-191 -48h-150v186zM68 1468v195h245v-195h-245z" />
<glyph unicode="k" horiz-adv-x="682" d="M68 0v1663h229v-803h14l95 496h231l-131 -596l160 -760h-250l-105 641h-14v-641h-229z" />
<glyph unicode="l" horiz-adv-x="379" d="M68 0v1663h243v-1663h-243z" />
<glyph unicode="m" horiz-adv-x="1018" d="M72 0v1356h239v-66q32 38 69.5 56t84.5 18q38 0 76 -20.5t67 -57.5q32 38 73 58t87 20q96 0 137 -66.5t41 -234.5v-1063h-239v1096q0 36 -9 50.5t-30 14.5q-22 0 -30.5 -13.5t-8.5 -51.5v-1096h-240v1096q0 37 -9 51t-30 14t-30 -14t-9 -51v-1096h-239z" />
<glyph unicode="n" horiz-adv-x="700" d="M68 0v1354h243v-56q32 32 68 49t72 17q99 0 140.5 -65t41.5 -252v-1047h-244v1096q0 36 -9 50.5t-30 14.5t-30 -14t-9 -51v-1096h-243z" />
<glyph unicode="o" horiz-adv-x="672" d="M53 252v850q0 160 55 211t228 51q174 0 229.5 -52.5t55.5 -209.5v-850q0 -158 -55.5 -209t-233.5 -51q-171 0 -225 51.5t-54 208.5zM297 250q0 -37 10 -53.5t31 -16.5q20 0 28.5 13.5t8.5 56.5v856q0 37 -8.5 52.5t-28.5 15.5q-23 0 -32 -14t-9 -54v-856z" />
<glyph unicode="p" horiz-adv-x="686" d="M68 -317v1671h243v-56q32 32 68 49t72 17q99 0 140.5 -65t41.5 -252v-736q0 -182 -41 -250.5t-135 -68.5q-41 0 -78 16.5t-68 48.5v-374h-243zM311 262q0 -37 9 -51t30 -14t30 15t9 50v832q0 8 -1 16.5t-1 9.5q0 16 -10 27.5t-25 11.5q-22 0 -31.5 -15t-9.5 -50v-832z " />
<glyph unicode="q" horiz-adv-x="686" d="M53 311v736q0 188 42 252.5t143 64.5q35 0 71 -17.5t66 -48.5v56h243v-1671h-243v374q-29 -30 -65.5 -46.5t-73.5 -16.5q-99 0 -141 65t-42 252zM297 262q0 -36 9 -50.5t30 -14.5t30 14.5t9 50.5v832q0 36 -9 50.5t-30 14.5t-30 -14t-9 -51v-832z" />
<glyph unicode="r" horiz-adv-x="647" d="M68 0v1354h243v-56q29 31 65.5 48.5t69.5 17.5q95 0 135 -66t40 -251v-242h-232v291q0 36 -9 50.5t-30 14.5t-30 -14t-9 -51v-1096h-243z" />
<glyph unicode="s" horiz-adv-x="670" d="M51 299v199h246v-252q0 -36 8.5 -51t28.5 -15q21 0 29.5 13.5t9.5 52.5v239q0 47 -16.5 67t-61.5 46l-115 61q-72 39 -100.5 84t-28.5 162v176q0 173 55 228t242 55q168 0 219 -51.5t51 -255.5v-156h-245v209q0 36 -9 51t-30 15q-20 0 -28.5 -14.5t-8.5 -51.5v-182 q0 -71 78 -115l18 -10l121 -70q58 -33 81 -77.5t23 -145.5v-211q0 -206 -52.5 -256.5t-235.5 -50.5q-174 0 -226.5 51.5t-52.5 255.5z" />
<glyph unicode="t" horiz-adv-x="438" d="M14 1167v189h64v307h244v-307h96v-189h-96v-919q0 -36 14.5 -50t50.5 -14h31v-186h-101q-139 0 -189 48t-50 228v893h-64z" />
<glyph unicode="u" horiz-adv-x="700" d="M68 311v1045h243v-1096q0 -37 9 -51t30 -14q22 0 30.5 14t8.5 51v1096h244v-1356h-244v57q-29 -30 -65.5 -46.5t-73.5 -16.5q-100 0 -141 65t-41 252z" />
<glyph unicode="v" horiz-adv-x="627" d="M25 1356h237l47 -907h10l48 907h237l-149 -1356h-283z" />
<glyph unicode="w" horiz-adv-x="956" d="M18 1356h242l43 -801h14l54 801h213l51 -801h16l45 801h238l-148 -1356h-239l-64 803h-14l-61 -803h-240z" />
<glyph unicode="x" horiz-adv-x="682" d="M23 0l133 733l-119 623h250l45 -484h8l51 484h250l-121 -623l133 -733h-254l-57 555h-8l-58 -555h-253z" />
<glyph unicode="y" horiz-adv-x="621" d="M-29 -129h138q43 0 59 12t16 43q0 4 -1 13.5t-1 13.5l-162 1403h234l51 -887h14l50 887h233l-158 -1403q-19 -174 -70.5 -222t-180.5 -48h-222v188z" />
<glyph unicode="z" horiz-adv-x="594" d="M39 0v213l262 952h-227v191h479v-205l-266 -958h264v-193h-512z" />
<glyph unicode="{" horiz-adv-x="1024" d="M162 442v179q7 0 21.5 -1.5t21.5 -1.5q126 0 178.5 59t52.5 202v247q0 145 23 206.5t80 94.5q44 27 109 38.5t181 11.5h45v-179q-8 0 -24 1t-23 1q-109 0 -147.5 -41.5t-38.5 -173.5v-241q0 -155 -44 -220.5t-159 -93.5q114 -27 158.5 -92.5t44.5 -220.5v-240 q0 -132 39.5 -174.5t148.5 -42.5q7 0 22 1t23 1v-176h-63q-102 0 -165.5 12t-106.5 37q-57 34 -80 96t-23 203v248q0 144 -52.5 203t-178.5 59q-7 0 -21.5 -1t-21.5 -1z" />
<glyph unicode="|" horiz-adv-x="1024" d="M424 -483v2048h178v-2048h-178z" />
<glyph unicode="}" horiz-adv-x="1024" d="M152 -238q8 0 23 -1t22 -1q109 0 147.5 42t38.5 175v240q0 153 45 219t160 94q-115 28 -160 93.5t-45 220.5v241q0 132 -38 173.5t-146 41.5q-7 0 -23 -1t-24 -1v179h45q115 0 179.5 -11.5t108.5 -38.5q57 -33 80 -95t23 -206v-247q0 -144 52 -202.5t179 -58.5 q6 0 21 1.5t22 1.5v-179q-7 0 -21.5 1t-21.5 1q-126 0 -178.5 -59t-52.5 -203v-248q0 -143 -23 -204t-80 -95q-43 -26 -108 -37.5t-180 -11.5h-45v176z" />
<glyph unicode="~" horiz-adv-x="1706" d="M178 434v187q106 72 202 107.5t185 35.5q62 0 125.5 -12t168.5 -48q13 -4 42 -15q164 -58 250 -58q85 0 177 37t202 116v-184q-103 -71 -197.5 -106t-183.5 -35q-44 0 -92.5 8.5t-98.5 26.5q-25 8 -76 26q-212 74 -319 74q-82 0 -174 -38t-211 -122z" />
<glyph unicode="&#xa0;" />
<glyph unicode="&#xa1;" horiz-adv-x="403" d="M59 1384v279h285v-279h-285zM61 0l48 1264h188l47 -1264h-283z" />
<glyph unicode="&#xa2;" d="M86 395v709q0 208 44 263.5t167 64.5v116h192v-116q121 -9 164 -66t43 -262v-230h-262v289q0 40 -9.5 55t-33.5 15q-22 0 -31.5 -15t-9.5 -55v-827q0 -40 10 -56t33 -16q22 0 31.5 16t9.5 56v317h262v-258q0 -206 -43 -263t-164 -64v-121h-192v120q-124 10 -167.5 66.5 t-43.5 261.5z" />
<glyph unicode="&#xa3;" d="M4 786v226h78v327q0 221 58.5 276.5t269.5 55.5q213 0 271 -58.5t58 -273.5v-219h-284v258q0 41 -10.5 56.5t-34.5 15.5q-23 0 -33 -16.5t-10 -55.5v-366h282v-226h-280v-569h24q36 0 49 13.5t13 76.5v371h284v-338q0 -224 -56.5 -282t-252.5 -58h-348v786h-78z" />
<glyph unicode="&#xa4;" horiz-adv-x="1241" d="M76 432l203 205q-40 53 -60 115.5t-20 132.5q0 69 20 131.5t60 116.5l-203 204l92 93l203 -203q55 41 117 61.5t133 20.5t134 -20.5t117 -61.5l203 203l94 -93l-204 -204q39 -54 59 -116.5t20 -131.5q0 -70 -20 -132.5t-59 -115.5l204 -205l-94 -92l-203 205 q-57 -42 -118 -62t-131 -20q-72 0 -135 20.5t-117 61.5l-203 -205zM332 885q0 -120 84.5 -204.5t206.5 -84.5q121 0 205.5 84.5t84.5 204.5q0 119 -85.5 205t-204.5 86q-120 0 -205.5 -86t-85.5 -205z" />
<glyph unicode="&#xa5;" horiz-adv-x="680" d="M-4 1663h276l76 -657l66 657h268l-152 -805h132v-186h-168v-672h-295v672h-166v186h127z" />
<glyph unicode="&#xa6;" horiz-adv-x="1024" d="M424 -350v758h178v-758h-178zM424 674v758h178v-758h-178z" />
<glyph unicode="&#xa7;" horiz-adv-x="739" d="M61 141v115h265v-174q0 -39 10 -54.5t35 -15.5q36 0 54 68l1 2v170q0 10 -2 19t-2 10q0 15 -17.5 35t-42.5 34l-202 113q-54 30 -76.5 78.5t-22.5 165.5v176q0 86 13 121.5t45 54.5q-32 26 -45 61.5t-13 108.5q1 1 1.5 4t0.5 6v4q0 1 -2 2v119q0 187 62 247t258 60 q182 0 240.5 -59t58.5 -273v-100h-254v160q0 35 -15 52t-44 17q-28 0 -41 -16.5t-13 -52.5v-131q0 -40 16.5 -64.5t53.5 -44.5l182 -100q63 -34 89 -82.5t26 -159.5v-201q0 -72 -14 -107.5t-48 -53.5q34 -25 48 -62.5t14 -113.5v-138q0 -214 -61 -272.5t-254 -58.5 q-186 0 -245 58.5t-59 272.5zM313 735q0 -49 9 -65.5t38 -36.5l66 -43v194q0 44 -9 61t-31 31l-73 50v-191z" />
<glyph unicode="&#xa8;" horiz-adv-x="1024" d="M276 1448v197h201v-197h-201zM549 1448v197h201v-197h-201z" />
<glyph unicode="&#xa9;" horiz-adv-x="1706" d="M113 731q0 145 57 280.5t164 243.5q105 107 235.5 161t282.5 54t286 -55t240 -162q105 -105 160 -238.5t55 -283.5q0 -153 -54.5 -286t-158.5 -234q-108 -107 -244.5 -164t-283.5 -57q-146 0 -280 56.5t-240 162.5q-107 106 -163 240.5t-56 281.5zM223 731 q0 -126 48 -240t139 -204q90 -91 204.5 -139t239.5 -48t240 48.5t209 140.5q89 88 135.5 200.5t46.5 241.5t-47 243.5t-135 203.5q-91 90 -205 137t-244 47t-243 -46.5t-201 -135.5q-90 -92 -138.5 -208t-48.5 -241zM457 725q0 208 109.5 331.5t291.5 123.5q147 0 243 -77 t105 -200h-166q-10 74 -60 114t-130 40q-99 0 -155 -86.5t-56 -239.5q0 -152 57.5 -234.5t163.5 -82.5q80 0 129 43.5t60 124.5h165q-7 -135 -106.5 -217t-253.5 -82q-183 0 -290 119t-107 323z" />
<glyph unicode="&#xaa;" horiz-adv-x="508" d="M41 924v161q0 54 19 85t67 59l154 84v176q-1 28 -7.5 37.5t-21.5 9.5t-22 -11t-7 -36v-146h-182v144q0 112 41 147t170 35q131 0 172 -36.5t41 -145.5v-772h-184v39q-24 -22 -52.5 -33.5t-58.5 -11.5q-71 0 -100 43t-29 172zM223 889q0 -25 7.5 -36t23.5 -11q15 0 21 9 t6 38v264l-31 -18q-14 -8 -20.5 -19.5t-6.5 -28.5v-12v-186z" />
<glyph unicode="&#xab;" horiz-adv-x="625" d="M53 680l90 571h179l-91 -571l91 -576h-179zM311 680l90 571h179l-91 -571l91 -576h-179z" />
<glyph unicode="&#xac;" horiz-adv-x="1706" d="M254 696v166h1198v-502h-166v336h-1032z" />
<glyph unicode="&#xad;" horiz-adv-x="512" d="M55 573v220h400v-220h-400z" />
<glyph unicode="&#xae;" horiz-adv-x="1706" d="M113 731q0 147 57.5 284t165.5 245q104 104 234.5 157t281.5 53q153 0 288.5 -56t241.5 -165q103 -104 157 -236.5t54 -281.5q0 -153 -55.5 -287t-161.5 -237q-108 -105 -243 -161t-281 -56q-147 0 -282.5 57.5t-241.5 165.5q-105 106 -160 239t-55 279zM223 731 q0 -125 47 -238.5t136 -203.5q90 -91 204 -140t234 -49q130 0 246.5 47t209.5 138q89 86 137 198.5t48 237.5q0 133 -45.5 247.5t-134.5 205.5q-93 92 -207.5 140t-243.5 48t-240 -45.5t-200 -134.5q-92 -94 -141.5 -210t-49.5 -241zM551 330v829h319q173 0 262 -57t89 -168 q0 -91 -48 -150.5t-137 -78.5l185 -375h-199l-164 346h-129v-346h-178zM729 786h117q100 0 146 30.5t46 96.5q0 69 -48 101.5t-152 32.5h-109v-261z" />
<glyph unicode="&#xaf;" horiz-adv-x="1024" d="M289 1460v174h440v-174h-440z" />
<glyph unicode="&#xb0;" horiz-adv-x="674" d="M43 1163q0 125 86 211t209 86q121 0 208 -87t87 -210q0 -121 -87 -208t-210 -87t-208 85.5t-85 209.5zM152 1165q0 -76 54.5 -131t131.5 -55t130.5 54.5t53.5 131.5t-53.5 131t-130.5 54t-131.5 -54t-54.5 -131z" />
<glyph unicode="&#xb1;" horiz-adv-x="1706" d="M254 14v168h1198v-168h-1198zM254 707v165h514v334h170v-334h514v-165h-514v-334h-170v334h-514z" />
<glyph unicode="&#xb2;" horiz-adv-x="516" d="M41 1319v149q0 135 39.5 168t177.5 33q143 0 181 -37t38 -164v-127q0 -36 -7.5 -68t-25.5 -69l-194 -403h227v-135h-432v135l215 444q15 33 20.5 56t6.5 51v141q0 24 -7 33.5t-24 9.5q-14 0 -20.5 -10t-6.5 -33v-174h-188z" />
<glyph unicode="&#xb3;" horiz-adv-x="516" d="M41 860v211h188v-235q0 -22 7 -31.5t22 -9.5t22 9.5t7 31.5v256q0 19 -10.5 30t-28.5 11h-68v143h68q22 0 30.5 10t8.5 39v168q0 23 -7.5 33t-23.5 10q-14 0 -20.5 -9.5t-6.5 -33.5v-154h-188v129q0 134 40 167.5t179 33.5q135 0 175 -35.5t40 -165.5v-106 q0 -75 -20.5 -110t-69.5 -48q50 -14 70 -46.5t20 -110.5v-187q0 -130 -40.5 -164t-174.5 -34q-140 0 -179.5 34t-39.5 164z" />
<glyph unicode="&#xb4;" horiz-adv-x="1024" d="M418 1434l82 217h225l-125 -217h-182z" />
<glyph unicode="&#xb5;" horiz-adv-x="1208" d="M-92 -430l297 1511h229l-125 -635q-6 -29 -9 -55t-3 -49q0 -96 46.5 -146.5t135.5 -50.5q122 0 193.5 88.5t111.5 292.5l109 555h225l-145 -739q-10 -49 -14.5 -81.5t-4.5 -51.5q0 -36 15.5 -51t52.5 -15q13 0 20.5 0.5t13.5 1.5l-32 -159q-32 -9 -68.5 -13t-81.5 -4 q-74 0 -111.5 31.5t-37.5 93.5v15q-41 -67 -108 -104.5t-146 -37.5q-81 0 -137.5 26t-97.5 83l-99 -506h-229z" />
<glyph unicode="&#xb6;" horiz-adv-x="1024" d="M55 1130q0 158 107 253.5t284 95.5h523v-99h-117v-1380h-129v1380h-168v-1380h-131v784q-168 6 -268.5 101t-100.5 245z" />
<glyph unicode="&#xb7;" horiz-adv-x="391" d="M53 834q0 57 43 99t101 42t99.5 -43t41.5 -103q0 -56 -43 -97.5t-102 -41.5q-56 0 -98 42.5t-42 101.5z" />
<glyph unicode="&#xb8;" horiz-adv-x="1024" d="M360 -150h89q35 0 52 15.5t17 46.5q0 16 -6 37t-20 51h112q31 -43 45.5 -79t14.5 -68q0 -81 -51 -118.5t-160 -37.5q-15 0 -46 2.5t-47 3.5v147z" />
<glyph unicode="&#xb9;" horiz-adv-x="369" d="M10 1401v133q57 6 91 39.5t40 89.5h152v-997h-189v735h-94z" />
<glyph unicode="&#xba;" horiz-adv-x="504" d="M41 891v596q0 112 41 147t170 35q131 0 172 -36.5t41 -145.5v-596q0 -111 -41 -146.5t-174 -35.5q-127 0 -168 36t-41 146zM223 889q0 -25 7.5 -36t23.5 -11q15 0 21 8t6 39v600q0 26 -6.5 36.5t-20.5 10.5q-17 0 -24 -10t-7 -37v-600z" />
<glyph unicode="&#xbb;" horiz-adv-x="625" d="M43 104l90 578l-90 569h178l90 -569l-90 -578h-178zM301 104l90 578l-90 569h178l90 -569l-90 -578h-178z" />
<glyph unicode="&#xbc;" horiz-adv-x="1128" d="M8 1417v125q55 5 88 36.5t39 84.5h144v-932h-179v686h-92zM139 -8l545 1679h164l-545 -1679h-164zM651 268v123l135 541h265v-541h49v-123h-49v-268h-177v268h-223zM811 391h70v375h-15z" />
<glyph unicode="&#xbd;" horiz-adv-x="1128" d="M8 1417v125q55 5 88 36.5t39 84.5h144v-932h-179v686h-92zM139 -8l545 1679h164l-545 -1679h-164zM676 610v140q0 126 37 156t168 30q136 0 172.5 -34.5t36.5 -151.5v-119q0 -34 -7 -63t-24 -64l-185 -377h216v-127h-412v127l205 414l3 6q21 46 23 91v134q0 22 -6.5 30.5 t-21.5 8.5t-22 -9t-7 -30v-162h-176z" />
<glyph unicode="&#xbe;" horiz-adv-x="1270" d="M39 911v199h178v-219q0 -21 7 -30t22 -9t21.5 9t6.5 30v237q0 19 -10 29t-28 10h-64v133h64q21 0 29.5 10t8.5 38v155q0 21 -6.5 30t-21.5 9t-22 -9t-7 -30v-143h-178v121q0 123 38.5 154.5t170.5 31.5q128 0 166.5 -32.5t38.5 -153.5v-101q0 -69 -19.5 -102t-64.5 -45 q47 -13 65.5 -42.5t18.5 -103.5v-176q0 -121 -38.5 -152.5t-166.5 -31.5q-133 0 -171 32.5t-38 151.5zM283 -8l544 1679h164l-545 -1679h-163zM795 268v123l135 541h264v-541h49v-123h-49v-268h-176v268h-223zM954 391h70v375h-14z" />
<glyph unicode="&#xbf;" horiz-adv-x="772" d="M57 299v217q0 76 13 135t43 117l90 185l3 6q32 62 32 120v3q2 12 2 22v176h282v-215q0 -89 -46 -180q-6 -12 -9 -19l-100 -207q-14 -26 -20.5 -61t-6.5 -78v-235q0 -41 10 -55.5t35 -14.5q24 0 34.5 15.5t10.5 54.5v290h285v-251q0 -216 -59.5 -273t-260.5 -57 q-212 0 -275 60t-63 245zM238 1386v277h284v-277h-284z" />
<glyph unicode="&#xc0;" horiz-adv-x="784" d="M33 0l164 1663h378l168 -1663h-276l-21 354h-118l-21 -354h-274zM338 575h96l-43 758h-8zM180 1954h225l80 -217h-180z" />
<glyph unicode="&#xc1;" horiz-adv-x="784" d="M33 0l164 1663h378l168 -1663h-276l-21 354h-118l-21 -354h-274zM338 575h96l-43 758h-8zM299 1737l82 217h225l-125 -217h-182z" />
<glyph unicode="&#xc2;" horiz-adv-x="784" d="M33 0l164 1663h378l168 -1663h-276l-21 354h-118l-21 -354h-274zM338 575h96l-43 758h-8zM149 1737l119 217h250l119 -217h-185l-59 94l-59 -94h-185z" />
<glyph unicode="&#xc3;" horiz-adv-x="784" d="M33 0l164 1663h378l168 -1663h-276l-21 354h-118l-21 -354h-274zM338 575h96l-43 758h-8zM135 1739v61q0 66 27.5 99.5t80.5 33.5q22 0 30 -0.5t14 -1.5l167 -29q2 0 7.5 -1t7.5 -1q23 0 37 13.5t14 36.5h133v-60q0 -68 -27 -101.5t-81 -33.5q-15 0 -24.5 1t-18.5 3 l-168 27q-2 0 -7.5 1t-7.5 1q-23 0 -37 -13.5t-14 -35.5h-133z" />
<glyph unicode="&#xc4;" horiz-adv-x="784" d="M33 0l164 1663h378l168 -1663h-276l-21 354h-118l-21 -354h-274zM338 575h96l-43 758h-8zM157 1751v197h201v-197h-201zM430 1751v197h201v-197h-201z" />
<glyph unicode="&#xc5;" horiz-adv-x="784" d="M33 0l162 1632h383l165 -1632h-276l-21 354h-118l-21 -354h-274zM168 1794v119q0 55 21.5 77.5t78.5 22.5h238q58 0 79 -22t21 -78v-119q0 -56 -22 -79t-78 -23h-238q-56 0 -78 22.5t-22 79.5zM291 1853q0 -26 4.5 -35.5t17.5 -9.5h148q12 0 18 10.5t6 34.5q0 25 -5 34 t-19 9h-148q-12 0 -17 -9.5t-5 -33.5zM338 575h96l-43 725h-8z" />
<glyph unicode="&#xc6;" horiz-adv-x="993" d="M-8 0l254 1663h684v-217h-170v-424h170v-219h-170v-584h170v-219h-447v354h-172l-43 -354h-276zM350 575h139v871h-30z" />
<glyph unicode="&#xc7;" horiz-adv-x="772" d="M63 322v1019q0 222 58.5 277t269.5 55q215 0 272.5 -57t57.5 -275v-245h-285v284q0 40 -11 56t-36 16q-23 0 -33 -16.5t-10 -55.5v-1099q0 -38 11 -54t36 -16q24 0 33.5 15t9.5 55v424h285v-383q0 -220 -59 -277t-267 -57q-214 0 -273 57.5t-59 276.5zM235 -150h89 q35 0 52 15.5t17 46.5q0 16 -6 37t-20 51h112q31 -43 45.5 -79t14.5 -68q0 -81 -51 -118.5t-160 -37.5q-15 0 -46 2.5t-47 3.5v147z" />
<glyph unicode="&#xc8;" horiz-adv-x="590" d="M72 0v1663h454v-217h-170v-424h170v-219h-170v-584h170v-219h-454zM82 1954h225l80 -217h-180z" />
<glyph unicode="&#xc9;" horiz-adv-x="590" d="M72 0v1663h454v-217h-170v-424h170v-219h-170v-584h170v-219h-454zM201 1737l82 217h225l-125 -217h-182z" />
<glyph unicode="&#xca;" horiz-adv-x="590" d="M72 0v1663h454v-217h-170v-424h170v-219h-170v-584h170v-219h-454zM51 1737l119 217h250l119 -217h-185l-59 94l-59 -94h-185z" />
<glyph unicode="&#xcb;" horiz-adv-x="590" d="M72 0v1663h454v-217h-170v-424h170v-219h-170v-584h170v-219h-454zM59 1751v197h201v-197h-201zM332 1751v197h201v-197h-201z" />
<glyph unicode="&#xcc;" horiz-adv-x="428" d="M72 0v1663h284v-1663h-284zM2 1954h225l80 -217h-180z" />
<glyph unicode="&#xcd;" horiz-adv-x="428" d="M72 0v1663h284v-1663h-284zM121 1737l82 217h225l-125 -217h-182z" />
<glyph unicode="&#xce;" horiz-adv-x="428" d="M72 0v1663h284v-1663h-284zM-29 1737l119 217h250l119 -217h-185l-59 94l-59 -94h-185z" />
<glyph unicode="&#xcf;" horiz-adv-x="428" d="M72 0v1663h284v-1663h-284zM-21 1751v197h201v-197h-201zM252 1751v197h201v-197h-201z" />
<glyph unicode="&#xd0;" horiz-adv-x="813" d="M25 829v179h53v655h356q198 0 254.5 -58.5t56.5 -279.5v-985q0 -225 -57 -282.5t-252 -57.5h-358v829h-53zM358 217q7 0 17.5 -1t13.5 -1q43 0 57.5 14.5t14.5 85.5v1041q0 63 -14.5 77.5t-57.5 14.5q-3 0 -13.5 -1t-17.5 -1v-438h52v-179h-52v-612z" />
<glyph unicode="&#xd1;" horiz-adv-x="809" d="M72 0v1663h254l155 -829h13l-5 829h246v-1663h-252l-157 852h-13l6 -852h-247zM148 1739v61q0 66 27.5 99.5t80.5 33.5q22 0 30 -0.5t14 -1.5l167 -29q2 0 7.5 -1t7.5 -1q23 0 37 13.5t14 36.5h133v-60q0 -68 -27 -101.5t-81 -33.5q-15 0 -24.5 1t-18.5 3l-168 27 q-2 0 -7.5 1t-7.5 1q-23 0 -37 -13.5t-14 -35.5h-133z" />
<glyph unicode="&#xd2;" d="M63 322v1019q0 222 58.5 277t269.5 55q215 0 272.5 -57t57.5 -275v-1019q0 -220 -59 -277t-267 -57q-214 0 -273 57.5t-59 276.5zM346 281q0 -38 11 -54t36 -16q24 0 33.5 15t9.5 55v1099q0 40 -11 56t-36 16q-23 0 -33 -16.5t-10 -55.5v-1099zM178 1954h225l80 -217 h-180z" />
<glyph unicode="&#xd3;" d="M63 322v1019q0 222 58.5 277t269.5 55q215 0 272.5 -57t57.5 -275v-1019q0 -220 -59 -277t-267 -57q-214 0 -273 57.5t-59 276.5zM346 281q0 -38 11 -54t36 -16q24 0 33.5 15t9.5 55v1099q0 40 -11 56t-36 16q-23 0 -33 -16.5t-10 -55.5v-1099zM297 1737l82 217h225 l-125 -217h-182z" />
<glyph unicode="&#xd4;" d="M63 322v1019q0 222 58.5 277t269.5 55q215 0 272.5 -57t57.5 -275v-1019q0 -220 -59 -277t-267 -57q-214 0 -273 57.5t-59 276.5zM346 281q0 -38 11 -54t36 -16q24 0 33.5 15t9.5 55v1099q0 40 -11 56t-36 16q-23 0 -33 -16.5t-10 -55.5v-1099zM147 1737l119 217h250 l119 -217h-185l-59 94l-59 -94h-185z" />
<glyph unicode="&#xd5;" d="M63 322v1019q0 222 58.5 277t269.5 55q215 0 272.5 -57t57.5 -275v-1019q0 -220 -59 -277t-267 -57q-214 0 -273 57.5t-59 276.5zM346 281q0 -38 11 -54t36 -16q24 0 33.5 15t9.5 55v1099q0 40 -11 56t-36 16q-23 0 -33 -16.5t-10 -55.5v-1099zM133 1739v61 q0 66 27.5 99.5t80.5 33.5q22 0 30 -0.5t14 -1.5l167 -29q2 0 7.5 -1t7.5 -1q23 0 37 13.5t14 36.5h133v-60q0 -68 -27 -101.5t-81 -33.5q-15 0 -24.5 1t-18.5 3l-168 27q-2 0 -7.5 1t-7.5 1q-23 0 -37 -13.5t-14 -35.5h-133z" />
<glyph unicode="&#xd6;" d="M63 322v1019q0 222 58.5 277t269.5 55q215 0 272.5 -57t57.5 -275v-1019q0 -220 -59 -277t-267 -57q-214 0 -273 57.5t-59 276.5zM346 281q0 -38 11 -54t36 -16q24 0 33.5 15t9.5 55v1099q0 40 -11 56t-36 16q-23 0 -33 -16.5t-10 -55.5v-1099zM155 1751v197h201v-197 h-201zM428 1751v197h201v-197h-201z" />
<glyph unicode="&#xd7;" horiz-adv-x="1706" d="M287 152l458 458l-458 461l116 117l459 -459l461 459l117 -117l-459 -461l459 -458l-117 -119l-461 461l-459 -461z" />
<glyph unicode="&#xd8;" d="M63 -74l41 150q-22 28 -31.5 71t-9.5 146v29v1019q0 222 58.5 277t269.5 55q45 0 83.5 -1.5t70.5 -3.5l35 118l127 -37l-41 -139q30 -29 42.5 -82.5t12.5 -186.5v-1019q0 -220 -59 -277t-297 -57q-51 0 -85 4.5t-65 13.5l-35 -115zM346 281q0 -39 11 -55.5t36 -16.5 q24 0 33.5 15.5t9.5 56.5v1101q0 40 -11 56t-36 16q-23 0 -33 -16.5t-10 -55.5v-1101z" />
<glyph unicode="&#xd9;" horiz-adv-x="788" d="M66 319v1344h284v-1382q0 -39 10.5 -55.5t34.5 -16.5t33.5 15.5t9.5 56.5v1382h285v-1344q0 -217 -58.5 -274t-267.5 -57q-214 0 -272.5 57.5t-58.5 273.5zM182 1954h225l80 -217h-180z" />
<glyph unicode="&#xda;" horiz-adv-x="788" d="M66 319v1344h284v-1382q0 -39 10.5 -55.5t34.5 -16.5t33.5 15.5t9.5 56.5v1382h285v-1344q0 -217 -58.5 -274t-267.5 -57q-214 0 -272.5 57.5t-58.5 273.5zM301 1737l82 217h225l-125 -217h-182z" />
<glyph unicode="&#xdb;" horiz-adv-x="788" d="M66 319v1344h284v-1382q0 -39 10.5 -55.5t34.5 -16.5t33.5 15.5t9.5 56.5v1382h285v-1344q0 -217 -58.5 -274t-267.5 -57q-214 0 -272.5 57.5t-58.5 273.5zM151 1737l119 217h250l119 -217h-185l-59 94l-59 -94h-185z" />
<glyph unicode="&#xdc;" horiz-adv-x="788" d="M66 319v1344h284v-1382q0 -39 10.5 -55.5t34.5 -16.5t33.5 15.5t9.5 56.5v1382h285v-1344q0 -217 -58.5 -274t-267.5 -57q-214 0 -272.5 57.5t-58.5 273.5zM159 1751v197h201v-197h-201zM432 1751v197h201v-197h-201z" />
<glyph unicode="&#xdd;" horiz-adv-x="680" d="M-4 1663h276l74 -641l68 641h268l-188 -991v-672h-295v672zM246 1737l82 217h225l-125 -217h-182z" />
<glyph unicode="&#xde;" horiz-adv-x="780" d="M72 0v1663h284v-264h70q190 0 246.5 -58t56.5 -280v-363q0 -224 -57.5 -282t-249.5 -58h-66v-358h-284zM356 575h25q39 0 52 16t13 87v399q0 75 -13 90t-56 15h-21v-607z" />
<glyph unicode="&#xdf;" horiz-adv-x="696" d="M66 -4v1415q0 155 54 207.5t208 52.5q187 0 248 -45.5t61 -163.5v-323q0 -104 -30.5 -160t-96.5 -78q70 -21 98.5 -74.5t28.5 -177.5v-393q0 -156 -52.5 -208t-197.5 -52h-41v202q27 3 37 16t10 54v477q0 18 -12.5 30.5t-30.5 12.5h-4l1 232q26 2 36 15t10 46v365 q0 14 -11 25.5t-28 11.5q-24 0 -33.5 -15t-9.5 -59v-1413h-245z" />
<glyph unicode="&#xe0;" horiz-adv-x="678" d="M53 297v231q0 79 26 123.5t91 83.5l205 119v252q0 39 -9 53.5t-30 14.5t-30 -15.5t-9 -52.5v-207h-244v203q0 160 55 211t228 51q174 0 229.5 -52.5t55.5 -209.5v-1102h-246v55q-31 -30 -69.5 -46.5t-80.5 -16.5q-94 0 -133 62t-39 243zM297 250q0 -38 9.5 -54t31.5 -16 q20 0 28.5 14.5t8.5 55.5v375l-41 -25q-19 -11 -28 -27.5t-9 -40.5v-18v-264zM127 1651h225l80 -217h-180z" />
<glyph unicode="&#xe1;" horiz-adv-x="678" d="M53 297v231q0 79 26 123.5t91 83.5l205 119v252q0 39 -9 53.5t-30 14.5t-30 -15.5t-9 -52.5v-207h-244v203q0 160 55 211t228 51q174 0 229.5 -52.5t55.5 -209.5v-1102h-246v55q-31 -30 -69.5 -46.5t-80.5 -16.5q-94 0 -133 62t-39 243zM297 250q0 -38 9.5 -54t31.5 -16 q20 0 28.5 14.5t8.5 55.5v375l-41 -25q-19 -11 -28 -27.5t-9 -40.5v-18v-264zM246 1434l82 217h225l-125 -217h-182z" />
<glyph unicode="&#xe2;" horiz-adv-x="678" d="M53 297v231q0 79 26 123.5t91 83.5l205 119v252q0 39 -9 53.5t-30 14.5t-30 -15.5t-9 -52.5v-207h-244v203q0 160 55 211t228 51q174 0 229.5 -52.5t55.5 -209.5v-1102h-246v55q-31 -30 -69.5 -46.5t-80.5 -16.5q-94 0 -133 62t-39 243zM297 250q0 -38 9.5 -54t31.5 -16 q20 0 28.5 14.5t8.5 55.5v375l-41 -25q-19 -11 -28 -27.5t-9 -40.5v-18v-264zM96 1434l119 217h250l119 -217h-185l-59 94l-59 -94h-185z" />
<glyph unicode="&#xe3;" horiz-adv-x="678" d="M53 297v231q0 79 26 123.5t91 83.5l205 119v252q0 39 -9 53.5t-30 14.5t-30 -15.5t-9 -52.5v-207h-244v203q0 160 55 211t228 51q174 0 229.5 -52.5t55.5 -209.5v-1102h-246v55q-31 -30 -69.5 -46.5t-80.5 -16.5q-94 0 -133 62t-39 243zM297 250q0 -38 9.5 -54t31.5 -16 q20 0 28.5 14.5t8.5 55.5v375l-41 -25q-19 -11 -28 -27.5t-9 -40.5v-18v-264zM82 1436v61q0 66 27.5 99.5t80.5 33.5q22 0 30 -0.5t14 -1.5l167 -29q2 0 7.5 -1t7.5 -1q23 0 37 13.5t14 36.5h133v-60q0 -68 -27 -101.5t-81 -33.5q-15 0 -24.5 1t-18.5 3l-168 27q-2 0 -7.5 1 t-7.5 1q-23 0 -37 -13.5t-14 -35.5h-133z" />
<glyph unicode="&#xe4;" horiz-adv-x="678" d="M53 297v231q0 79 26 123.5t91 83.5l205 119v252q0 39 -9 53.5t-30 14.5t-30 -15.5t-9 -52.5v-207h-244v203q0 160 55 211t228 51q174 0 229.5 -52.5t55.5 -209.5v-1102h-246v55q-31 -30 -69.5 -46.5t-80.5 -16.5q-94 0 -133 62t-39 243zM297 250q0 -38 9.5 -54t31.5 -16 q20 0 28.5 14.5t8.5 55.5v375l-41 -25q-19 -11 -28 -27.5t-9 -40.5v-18v-264zM104 1448v197h201v-197h-201zM377 1448v197h201v-197h-201z" />
<glyph unicode="&#xe5;" horiz-adv-x="678" d="M53 297v231q0 79 26 123.5t91 83.5l205 119v252q0 39 -9 53.5t-30 14.5t-30 -15.5t-9 -52.5v-207h-244v203q0 160 55 211t228 51q174 0 229.5 -52.5t55.5 -209.5v-1102h-246v55q-31 -30 -69.5 -46.5t-80.5 -16.5q-94 0 -133 62t-39 243zM117 1536v119q0 48 19 74t54 26 h27h238q57 0 78.5 -22t21.5 -78v-119q0 -57 -22 -79.5t-78 -22.5h-238q-56 0 -78 23t-22 79zM240 1593q0 -22 5.5 -32.5t18.5 -10.5h146q12 0 18 11.5t6 33.5q0 23 -6 34t-18 11h-146q-12 0 -18 -11.5t-6 -35.5zM297 250q0 -38 9.5 -54t31.5 -16q20 0 28.5 14.5t8.5 55.5 v375l-41 -25q-19 -11 -28 -27.5t-9 -40.5v-18v-264z" />
<glyph unicode="&#xe6;" horiz-adv-x="993" d="M53 295v233q0 80 26.5 126t90.5 81l205 113v258q0 39 -9 53.5t-30 14.5t-30 -15.5t-9 -52.5v-207h-244v203q0 160 55 211t218 51q62 0 100.5 -12t71.5 -39q28 28 65.5 39.5t106.5 11.5q159 0 214.5 -53t55.5 -209v-465h-319v-387q0 -40 8 -55t28 -15q22 0 30.5 14t8.5 56 v252h244v-250q0 -150 -55 -204t-211 -54q-99 0 -145 21.5t-78 76.5q-41 -54 -86 -78t-107 -24q-115 0 -160 57.5t-45 247.5zM297 250q0 -38 9.5 -54t31.5 -16q20 0 28.5 14.5t8.5 55.5v375l-41 -25q-19 -11 -28 -27.5t-9 -40.5v-18v-264zM621 825h75v308q0 17 -10.5 29 t-26.5 12q-21 0 -29.5 -12.5t-8.5 -55.5v-281z" />
<glyph unicode="&#xe7;" horiz-adv-x="672" d="M53 252v850q0 160 55 211t228 51q174 0 229.5 -52.5t55.5 -209.5v-299h-246v303q0 39 -9 53.5t-30 14.5q-22 0 -30.5 -13.5t-8.5 -54.5v-856q0 -39 9 -54.5t30 -15.5t30 14t9 56v332h246v-330q0 -158 -55.5 -209t-233.5 -51q-171 0 -225 51.5t-54 208.5zM184 -150h89 q35 0 52 15.5t17 46.5q0 16 -6 37t-20 51h112q31 -43 45.5 -79t14.5 -68q0 -81 -51 -118.5t-160 -37.5q-15 0 -46 2.5t-47 3.5v147z" />
<glyph unicode="&#xe8;" horiz-adv-x="672" d="M53 252v850q0 160 55 211t228 51q174 0 229.5 -52.5t55.5 -209.5v-465h-324v-387q0 -39 9 -54.5t30 -15.5t30 14t9 56v252h246v-250q0 -158 -55.5 -209t-233.5 -51q-171 0 -225 51.5t-54 208.5zM297 825h78v281q0 37 -8.5 52.5t-28.5 15.5q-23 0 -32 -14t-9 -54v-281z M123 1651h225l80 -217h-180z" />
<glyph unicode="&#xe9;" horiz-adv-x="672" d="M53 252v850q0 160 55 211t228 51q174 0 229.5 -52.5t55.5 -209.5v-465h-324v-387q0 -39 9 -54.5t30 -15.5t30 14t9 56v252h246v-250q0 -158 -55.5 -209t-233.5 -51q-171 0 -225 51.5t-54 208.5zM297 825h78v281q0 37 -8.5 52.5t-28.5 15.5q-23 0 -32 -14t-9 -54v-281z M242 1434l82 217h225l-125 -217h-182z" />
<glyph unicode="&#xea;" horiz-adv-x="672" d="M53 252v850q0 160 55 211t228 51q174 0 229.5 -52.5t55.5 -209.5v-465h-324v-387q0 -39 9 -54.5t30 -15.5t30 14t9 56v252h246v-250q0 -158 -55.5 -209t-233.5 -51q-171 0 -225 51.5t-54 208.5zM297 825h78v281q0 37 -8.5 52.5t-28.5 15.5q-23 0 -32 -14t-9 -54v-281z M92 1434l119 217h250l119 -217h-185l-59 94l-59 -94h-185z" />
<glyph unicode="&#xeb;" horiz-adv-x="672" d="M53 252v850q0 160 55 211t228 51q174 0 229.5 -52.5t55.5 -209.5v-465h-324v-387q0 -39 9 -54.5t30 -15.5t30 14t9 56v252h246v-250q0 -158 -55.5 -209t-233.5 -51q-171 0 -225 51.5t-54 208.5zM297 825h78v281q0 37 -8.5 52.5t-28.5 15.5q-23 0 -32 -14t-9 -54v-281z M100 1448v197h201v-197h-201zM373 1448v197h201v-197h-201z" />
<glyph unicode="&#xec;" horiz-adv-x="379" d="M68 0v1356h243v-1356h-243zM-23 1651h225l80 -217h-180z" />
<glyph unicode="&#xed;" horiz-adv-x="379" d="M68 0v1356h243v-1356h-243zM96 1434l82 217h225l-125 -217h-182z" />
<glyph unicode="&#xee;" horiz-adv-x="379" d="M68 0v1356h243v-1356h-243zM-54 1434l119 217h250l119 -217h-185l-59 94l-59 -94h-185z" />
<glyph unicode="&#xef;" horiz-adv-x="379" d="M68 0v1356h243v-1356h-243zM-46 1448v197h201v-197h-201zM227 1448v197h201v-197h-201z" />
<glyph unicode="&#xf0;" horiz-adv-x="672" d="M53 244v768q0 134 44 192t143 58q23 0 46.5 -4.5t51.5 -13.5q-16 39 -35 77.5t-41 77.5l-127 -35l-57 117l117 30l-89 156h246l49 -94l127 35l58 -119l-121 -33q93 -173 124.5 -276.5t31.5 -208.5v-727q0 -152 -56 -202t-233 -50q-171 0 -225 50t-54 202zM297 244 q0 -37 9 -51.5t32 -14.5q21 0 29 12t8 54v770q0 37 -8.5 51t-28.5 14q-23 0 -32 -13.5t-9 -51.5v-770z" />
<glyph unicode="&#xf1;" horiz-adv-x="700" d="M68 0v1354h243v-56q32 32 68 49t72 17q99 0 140.5 -65t41.5 -252v-1047h-244v1096q0 36 -9 50.5t-30 14.5t-30 -14t-9 -51v-1096h-243zM92 1436v61q0 66 27.5 99.5t80.5 33.5q22 0 30 -0.5t14 -1.5l167 -29q2 0 7.5 -1t7.5 -1q23 0 37 13.5t14 36.5h133v-60 q0 -68 -27 -101.5t-81 -33.5q-15 0 -24.5 1t-18.5 3l-168 27q-2 0 -7.5 1t-7.5 1q-23 0 -37 -13.5t-14 -35.5h-133z" />
<glyph unicode="&#xf2;" horiz-adv-x="672" d="M53 252v850q0 160 55 211t228 51q174 0 229.5 -52.5t55.5 -209.5v-850q0 -158 -55.5 -209t-233.5 -51q-171 0 -225 51.5t-54 208.5zM297 250q0 -37 10 -53.5t31 -16.5q20 0 28.5 13.5t8.5 56.5v856q0 37 -8.5 52.5t-28.5 15.5q-23 0 -32 -14t-9 -54v-856zM123 1651h225 l80 -217h-180z" />
<glyph unicode="&#xf3;" horiz-adv-x="672" d="M53 252v850q0 160 55 211t228 51q174 0 229.5 -52.5t55.5 -209.5v-850q0 -158 -55.5 -209t-233.5 -51q-171 0 -225 51.5t-54 208.5zM297 250q0 -37 10 -53.5t31 -16.5q20 0 28.5 13.5t8.5 56.5v856q0 37 -8.5 52.5t-28.5 15.5q-23 0 -32 -14t-9 -54v-856zM242 1434 l82 217h225l-125 -217h-182z" />
<glyph unicode="&#xf4;" horiz-adv-x="672" d="M53 252v850q0 160 55 211t228 51q174 0 229.5 -52.5t55.5 -209.5v-850q0 -158 -55.5 -209t-233.5 -51q-171 0 -225 51.5t-54 208.5zM297 250q0 -37 10 -53.5t31 -16.5q20 0 28.5 13.5t8.5 56.5v856q0 37 -8.5 52.5t-28.5 15.5q-23 0 -32 -14t-9 -54v-856zM92 1434 l119 217h250l119 -217h-185l-59 94l-59 -94h-185z" />
<glyph unicode="&#xf5;" horiz-adv-x="672" d="M53 252v850q0 160 55 211t228 51q174 0 229.5 -52.5t55.5 -209.5v-850q0 -158 -55.5 -209t-233.5 -51q-171 0 -225 51.5t-54 208.5zM297 250q0 -37 10 -53.5t31 -16.5q20 0 28.5 13.5t8.5 56.5v856q0 37 -8.5 52.5t-28.5 15.5q-23 0 -32 -14t-9 -54v-856zM78 1436v61 q0 66 27.5 99.5t80.5 33.5q22 0 30 -0.5t14 -1.5l167 -29q2 0 7.5 -1t7.5 -1q23 0 37 13.5t14 36.5h133v-60q0 -68 -27 -101.5t-81 -33.5q-15 0 -24.5 1t-18.5 3l-168 27q-2 0 -7.5 1t-7.5 1q-23 0 -37 -13.5t-14 -35.5h-133z" />
<glyph unicode="&#xf6;" horiz-adv-x="672" d="M53 252v850q0 160 55 211t228 51q174 0 229.5 -52.5t55.5 -209.5v-850q0 -158 -55.5 -209t-233.5 -51q-171 0 -225 51.5t-54 208.5zM297 250q0 -37 10 -53.5t31 -16.5q20 0 28.5 13.5t8.5 56.5v856q0 37 -8.5 52.5t-28.5 15.5q-23 0 -32 -14t-9 -54v-856zM100 1448v197 h201v-197h-201zM373 1448v197h201v-197h-201z" />
<glyph unicode="&#xf7;" horiz-adv-x="1706" d="M254 528v166h1198v-166h-1198zM717 229q0 57 40.5 97.5t96.5 40.5q57 0 97 -40.5t40 -97.5q0 -56 -39.5 -95.5t-97.5 -39.5t-97.5 39t-39.5 96zM717 989q0 57 40.5 98t96.5 41q57 0 97 -41t40 -98q0 -56 -39.5 -95.5t-97.5 -39.5t-97.5 39t-39.5 96z" />
<glyph unicode="&#xf8;" horiz-adv-x="672" d="M49 -72l41 138q-20 20 -28.5 52.5t-8.5 110.5v25v848q0 156 55.5 209t208.5 53q64 0 101.5 -3.5t72.5 -10.5l33 108l99 -31l-41 -137q21 -19 30 -55t9 -133v-848q0 -153 -55 -206.5t-208 -53.5q-59 0 -99.5 3.5t-76.5 10.5l-35 -110zM297 250q0 -37 10 -53.5t31 -16.5 q20 0 28.5 13.5t8.5 56.5v856q0 37 -8.5 52.5t-28.5 15.5q-23 0 -32 -14t-9 -54v-856z" />
<glyph unicode="&#xf9;" horiz-adv-x="700" d="M68 311v1045h243v-1096q0 -37 9 -51t30 -14q22 0 30.5 14t8.5 51v1096h244v-1356h-244v57q-29 -30 -65.5 -46.5t-73.5 -16.5q-100 0 -141 65t-41 252zM137 1651h225l80 -217h-180z" />
<glyph unicode="&#xfa;" horiz-adv-x="700" d="M68 311v1045h243v-1096q0 -37 9 -51t30 -14q22 0 30.5 14t8.5 51v1096h244v-1356h-244v57q-29 -30 -65.5 -46.5t-73.5 -16.5q-100 0 -141 65t-41 252zM256 1434l82 217h225l-125 -217h-182z" />
<glyph unicode="&#xfb;" horiz-adv-x="700" d="M68 311v1045h243v-1096q0 -37 9 -51t30 -14q22 0 30.5 14t8.5 51v1096h244v-1356h-244v57q-29 -30 -65.5 -46.5t-73.5 -16.5q-100 0 -141 65t-41 252zM106 1434l119 217h250l119 -217h-185l-59 94l-59 -94h-185z" />
<glyph unicode="&#xfc;" horiz-adv-x="700" d="M68 311v1045h243v-1096q0 -37 9 -51t30 -14q22 0 30.5 14t8.5 51v1096h244v-1356h-244v57q-29 -30 -65.5 -46.5t-73.5 -16.5q-100 0 -141 65t-41 252zM114 1448v197h201v-197h-201zM387 1448v197h201v-197h-201z" />
<glyph unicode="&#xfd;" horiz-adv-x="621" d="M-29 -129h138q43 0 59 12t16 43q0 4 -1 13.5t-1 13.5l-162 1403h234l51 -887h14l50 887h233l-158 -1403q-19 -174 -70.5 -222t-180.5 -48h-222v188zM217 1434l82 217h225l-125 -217h-182z" />
<glyph unicode="&#xfe;" horiz-adv-x="686" d="M68 -317v1980h243v-365q32 32 68 49t72 17q99 0 140.5 -65t41.5 -252v-736q0 -182 -41 -250.5t-135 -68.5q-41 0 -78 16.5t-68 48.5v-374h-243zM311 262q0 -37 9 -51t30 -14t30 15t9 50v832q0 8 -1 16.5t-1 9.5q0 16 -10 27.5t-25 11.5q-22 0 -31.5 -15t-9.5 -50v-832z " />
<glyph unicode="&#xff;" horiz-adv-x="621" d="M-29 -129h138q43 0 59 12t16 43q0 4 -1 13.5t-1 13.5l-162 1403h234l51 -887h14l50 887h233l-158 -1403q-19 -174 -70.5 -222t-180.5 -48h-222v188zM75 1448v197h201v-197h-201zM348 1448v197h201v-197h-201z" />
<glyph unicode="&#x131;" horiz-adv-x="379" d="M68 0v1356h243v-1356h-243z" />
<glyph unicode="&#x152;" horiz-adv-x="952" d="M63 328v1007q0 219 55.5 273.5t280.5 54.5h484v-217h-170v-424h170v-219h-170v-584h170v-219h-488q-220 0 -276 56t-56 272zM346 283q0 -43 12.5 -57.5t47.5 -14.5q3 0 13 1t15 1v1235h-24q-39 0 -51.5 -13.5t-12.5 -56.5v-1095z" />
<glyph unicode="&#x153;" horiz-adv-x="993" d="M53 252v850q0 157 54.5 209.5t201.5 52.5q71 0 112.5 -13.5t76.5 -45.5q30 30 73 44.5t101 14.5q158 0 214 -53.5t56 -208.5v-465h-321v-387q0 -41 8.5 -55.5t29.5 -14.5q20 0 28.5 14.5t8.5 55.5v252h246v-250q0 -155 -54 -207.5t-202 -52.5q-72 0 -115 13.5t-73 43.5 q-33 -30 -72.5 -43.5t-95.5 -13.5q-166 0 -221.5 51.5t-55.5 208.5zM297 250q0 -37 10 -53.5t31 -16.5q20 0 28.5 13.5t8.5 56.5v856q0 37 -8.5 52.5t-28.5 15.5q-23 0 -32 -14t-9 -54v-856zM621 825h75v281v27q0 17 -10.5 29t-26.5 12q-21 0 -29.5 -12.5t-8.5 -55.5v-281z " />
<glyph unicode="&#x178;" horiz-adv-x="680" d="M-4 1663h276l74 -641l68 641h268l-188 -991v-672h-295v672zM104 1751v197h201v-197h-201zM377 1751v197h201v-197h-201z" />
<glyph unicode="&#x2c6;" horiz-adv-x="1024" d="M268 1434l119 217h250l119 -217h-185l-59 94l-59 -94h-185z" />
<glyph unicode="&#x2dc;" horiz-adv-x="1024" d="M254 1436v61q0 66 27.5 99.5t80.5 33.5q22 0 30 -0.5t14 -1.5l167 -29q2 0 7.5 -1t7.5 -1q23 0 37 13.5t14 36.5h133v-60q0 -68 -27 -101.5t-81 -33.5q-15 0 -24.5 1t-18.5 3l-168 27q-2 0 -7.5 1t-7.5 1q-23 0 -37 -13.5t-14 -35.5h-133z" />
<glyph unicode="&#x2013;" horiz-adv-x="1024" d="M0 594v178h1024v-178h-1024z" />
<glyph unicode="&#x2014;" horiz-adv-x="2048" d="M0 594v178h2048v-178h-2048z" />
<glyph unicode="&#x2018;" horiz-adv-x="391" d="M78 1094v311q0 142 54 202.5t181 63.5v-135q-56 -5 -78 -29.5t-22 -83.5v-37h100v-292h-235z" />
<glyph unicode="&#x2019;" horiz-adv-x="391" d="M78 1086v136q56 6 78 30.5t22 82.5v37h-100v291h235v-311q0 -141 -54 -201.5t-181 -64.5z" />
<glyph unicode="&#x201a;" horiz-adv-x="391" d="M78 0v293h235v-311q0 -142 -54.5 -203.5t-180.5 -62.5v134q55 5 77.5 30t22.5 83v37h-100z" />
<glyph unicode="&#x201c;" horiz-adv-x="725" d="M78 1094v311q0 142 54 202.5t181 63.5v-135q-56 -5 -78 -29.5t-22 -83.5v-37h100v-292h-235zM412 1094v311q0 142 54 202.5t181 63.5v-135q-56 -5 -78 -29.5t-22 -83.5v-37h100v-292h-235z" />
<glyph unicode="&#x201d;" horiz-adv-x="725" d="M78 1086v136q56 6 78 30.5t22 82.5v37h-100v291h235v-311q0 -141 -54 -201.5t-181 -64.5zM412 1086v137q56 5 78 29.5t22 82.5v37h-100v291h235v-311q0 -141 -53.5 -201.5t-181.5 -64.5z" />
<glyph unicode="&#x201e;" horiz-adv-x="725" d="M78 0v293h235v-313q0 -142 -54 -202t-181 -62v134q55 5 77.5 30t22.5 83v37h-100zM412 0v293h235v-313q0 -141 -54.5 -201.5t-180.5 -63.5v135q55 5 77.5 30t22.5 83v37h-100z" />
<glyph unicode="&#x2022;" horiz-adv-x="1208" d="M307 762q0 123 87 209t210 86q122 0 208.5 -86.5t86.5 -208.5t-87.5 -209.5t-209.5 -87.5q-123 0 -209 87t-86 210z" />
<glyph unicode="&#x2026;" horiz-adv-x="2048" d="M223 0v293h235v-293h-235zM905 0v293h235v-293h-235zM1589 0v293h235v-293h-235z" />
<glyph unicode="&#x2039;" horiz-adv-x="367" d="M53 680l90 571h179l-91 -571l91 -576h-179z" />
<glyph unicode="&#x203a;" horiz-adv-x="367" d="M45 104l90 578l-90 569h178l90 -569l-90 -578h-178z" />
<glyph unicode="&#x2122;" horiz-adv-x="1706" d="M225 1366v94h467v-94h-168v-448h-129v448h-170zM809 918v542h170l141 -360l133 360h170v-542h-114v428l-160 -428h-59l-166 428v-428h-115z" />
<glyph unicode="&#xe000;" horiz-adv-x="1355" d="M0 1355h1355v-1355h-1355v1355z" />
<glyph unicode="&#xfb01;" horiz-adv-x="819" d="M508 0v1356h243v-1356h-243zM508 1468v195h243v-195h-243zM16 1167v189h64v65q0 146 51 198t180 52h125v-186h-65q-23 0 -34 -16.5t-11 -49.5v-63h110v-189h-110v-1167h-246v1167h-64z" />
<glyph unicode="&#xfb02;" horiz-adv-x="819" d="M508 0v1663h243v-1663h-243zM16 1167v189h64v65q0 146 51 198t180 52h125v-186h-65q-23 0 -34 -16.5t-11 -49.5v-63h110v-189h-110v-1167h-246v1167h-64z" />
<glyph unicode="&#xfb03;" horiz-adv-x="1259" d="M948 0v1356h243v-1356h-243zM948 1468v195h243v-195h-243zM456 1167v189h64v65q0 146 51 198t180 52h125v-186h-65q-23 0 -34 -16.5t-11 -49.5v-63h110v-189h-110v-1167h-246v1167h-64zM16 1167v189h64v65q0 146 51 198t180 52h125v-186h-65q-23 0 -34 -16.5t-11 -49.5 v-63h110v-189h-110v-1167h-246v1167h-64z" />
<glyph unicode="&#xfb04;" horiz-adv-x="1259" d="M948 0v1663h243v-1663h-243zM456 1167v189h64v65q0 146 51 198t180 52h125v-186h-65q-23 0 -34 -16.5t-11 -49.5v-63h110v-189h-110v-1167h-246v1167h-64zM16 1167v189h64v65q0 146 51 198t180 52h125v-186h-65q-23 0 -34 -16.5t-11 -49.5v-63h110v-189h-110v-1167h-246 v1167h-64z" />
</font>
</defs>
</svg>
