<?xml version="1.0" standalone="no"?>
<!DOCTYPE svg PUBLIC "-//W3C//DTD SVG 1.1//EN" "http://www.w3.org/Graphics/SVG/1.1/DTD/svg11.dtd" >
<svg xmlns="http://www.w3.org/2000/svg">
<metadata>
This is a custom SVG webfont generated by Font Squirrel.
Copyright   : Copyright 19901993 Bitstream Inc  All rights reserved
</metadata>
<defs>
<font id="CompactaLight" horiz-adv-x="551" >
<font-face units-per-em="2048" ascent="1638" descent="-410" />
<missing-glyph horiz-adv-x="326" />
<glyph unicode=" "  horiz-adv-x="326" />
<glyph unicode="&#x09;" horiz-adv-x="326" />
<glyph unicode="&#xa0;" horiz-adv-x="326" />
<glyph unicode="!" horiz-adv-x="346" d="M59 0v285h228v-285h-228zM59 1663h228l-37 -1260h-154z" />
<glyph unicode="&#x22;" horiz-adv-x="614" d="M90 881v555h139v-555h-139zM385 881v555h139v-555h-139z" />
<glyph unicode="#" horiz-adv-x="1575" d="M88 449l53 147h310l92 262h-330l51 146h332l162 454h166l-162 -454h256l164 454h164l-160 -454h301l-51 -146h-303l-93 -262h322l-51 -147h-322l-162 -453h-165l161 453h-258l-162 -453h-165l159 453h-309zM616 594h261l92 264h-260z" />
<glyph unicode="$" horiz-adv-x="649" d="M59 309v393h228v-475q0 -34 8.5 -47.5t28.5 -13.5t29 15t9 46v441q0 42 -10 57t-47 39l-141 86q-57 35 -81 81t-24 144v277q0 202 40 255t151 62v105h147v-107q112 -7 152.5 -61.5t40.5 -253.5v-256h-228v338q0 31 -9 45t-29 14q-21 0 -29 -12.5t-8 -46.5v-342 q0 -44 10.5 -60t46.5 -39l139 -84q58 -35 82.5 -83t24.5 -144v-373q0 -200 -40.5 -254.5t-152.5 -60.5v-107h-147v105q-111 9 -151 62t-40 255z" />
<glyph unicode="%" horiz-adv-x="1165" d="M59 1120v289q0 180 41 221t168 41q130 0 169.5 -43t39.5 -219v-289q0 -178 -40.5 -222t-168.5 -44q-126 0 -167.5 42t-41.5 224zM229 1049q0 -25 9.5 -37.5t27.5 -12.5q19 0 29 13t10 37v428q0 26 -9 37.5t-30 11.5q-19 0 -28 -11.5t-9 -37.5v-428zM240 -6l553 1677h141 l-553 -1677h-141zM690 258v289q0 181 40.5 221.5t166.5 40.5q131 0 171 -43.5t40 -218.5v-289q0 -176 -41 -220t-170 -44q-125 0 -166 40.5t-41 223.5zM860 188q0 -24 9.5 -37.5t27.5 -13.5q19 0 29 13.5t10 37.5v426q0 26 -9.5 38t-29.5 12q-19 0 -28 -11.5t-9 -38.5v-426z " />
<glyph unicode="&#x26;" horiz-adv-x="659" d="M59 319v367q0 110 24.5 158t84.5 63q-60 16 -84.5 63.5t-24.5 157.5v218q0 211 48 264t182 53h233v-174h-196q-20 0 -29.5 -15t-9.5 -47v-387q0 -24 9.5 -35.5t31.5 -11.5h34v318h211v-318h78v-176h-78v-817h-260q-153 0 -203.5 51.5t-50.5 267.5zM287 236q0 -32 9 -46 t30 -14h36v641h-34q-22 0 -31.5 -10.5t-9.5 -34.5v-536z" />
<glyph unicode="'" horiz-adv-x="317" d="M90 881v555h139v-555h-139z" />
<glyph unicode="(" horiz-adv-x="336" d="M70 14v1434q0 116 49.5 169.5t154.5 53.5h45v-180q-26 -4 -35.5 -18t-9.5 -74v-1346q0 -49 10 -64t35 -18v-180h-45q-105 0 -154.5 54t-49.5 169z" />
<glyph unicode=")" horiz-adv-x="336" d="M16 -29q26 3 35.5 17.5t9.5 56.5v18v1364q0 34 -9.5 47.5t-34.5 16.5l-1 180h45q107 0 157 -54t50 -169v-1434q0 -115 -50 -169t-157 -54h-45v180z" />
<glyph unicode="*" horiz-adv-x="647" d="M0 1378l43 131l211 -69v223h139v-223l211 69l43 -131l-213 -69l129 -179l-108 -79l-131 178l-129 -178l-111 79l129 179z" />
<glyph unicode="+" horiz-adv-x="1706" d="M254 541v139h528v541h142v-541h528v-139h-528v-541h-142v541h-528z" />
<glyph unicode="," horiz-adv-x="326" d="M72 0v285h180v-316q0 -107 -46 -166t-134 -65v133q34 9 51.5 34t17.5 66v29h-69z" />
<glyph unicode="-" horiz-adv-x="526" d="M63 600v176h400v-176h-400z" />
<glyph unicode="." horiz-adv-x="326" d="M72 0v285h180v-285h-180z" />
<glyph unicode="/" horiz-adv-x="418" d="M-12 -190l280 1853h133l-280 -1853h-133z" />
<glyph unicode="0" horiz-adv-x="649" d="M59 311v1043q0 213 50.5 265t216.5 52q164 0 214 -51t50 -266v-1043q0 -215 -50 -266t-208 -51q-172 0 -222.5 50.5t-50.5 266.5zM287 229q0 -33 9 -47t30 -14q19 0 27.5 14t8.5 47v1207q0 32 -8.5 45.5t-27.5 13.5q-21 0 -30 -13.5t-9 -45.5v-1207z" />
<glyph unicode="1" horiz-adv-x="477" d="M12 1268v182q67 19 109.5 74t54.5 139h184v-1663h-227v1268h-121z" />
<glyph unicode="2" horiz-adv-x="649" d="M59 1098v256q0 215 50 266t215 51t215.5 -52t50.5 -265v-215q0 -41 -9.5 -87t-35.5 -122l-250 -735h295v-195h-527v195l265 774q20 58 27 97.5t7 80.5v289q0 31 -9 45t-29 14q-21 0 -29 -12.5t-8 -46.5v-338h-228z" />
<glyph unicode="3" horiz-adv-x="649" d="M55 311v396h228v-478q0 -33 9 -47t30 -14q19 0 27.5 14t8.5 47v537q0 25 -9 36t-30 11h-83v188h83q21 0 30 11t9 37v387q0 32 -8.5 45.5t-27.5 13.5q-21 0 -30 -13.5t-9 -45.5v-338h-228v256q0 213 50.5 265t216.5 52q165 0 215.5 -52t50.5 -265v-226 q0 -110 -24.5 -157.5t-84.5 -63.5q60 -15 84.5 -63t24.5 -158v-375q0 -213 -50.5 -265t-209.5 -52q-172 0 -222.5 50.5t-50.5 266.5z" />
<glyph unicode="4" horiz-adv-x="649" d="M20 502v176l179 985h340v-985h59v-176h-59v-502h-220v502h-299zM227 678h103v764h-11z" />
<glyph unicode="5" horiz-adv-x="649" d="M66 311v389h227v-471q0 -34 8.5 -47.5t28.5 -13.5t29.5 15t9.5 46v729q0 32 -9.5 46t-29.5 14t-28.5 -12.5t-8.5 -47.5v-96h-227v801h526v-174h-299v-332q29 23 58.5 34t62.5 11q95 0 138.5 -62.5t43.5 -201.5v-627q0 -215 -50 -266t-208 -51q-172 0 -222 50.5t-50 266.5 z" />
<glyph unicode="6" horiz-adv-x="649" d="M61 311v1043q0 215 50 266t215 51t215.5 -52t50.5 -265v-260h-227v342q0 31 -9.5 45t-29.5 14t-28.5 -12.5t-8.5 -46.5v-480q29 23 58.5 34t62.5 11q94 0 138 -63t44 -203v-424q0 -215 -50 -266t-208 -51q-172 0 -222.5 50.5t-50.5 266.5zM289 229q0 -34 8.5 -47.5 t28.5 -13.5t29.5 15t9.5 46v527q0 31 -9.5 46t-29.5 15t-28.5 -13.5t-8.5 -47.5v-527z" />
<glyph unicode="7" horiz-adv-x="602" d="M49 1489v174h477v-174l-217 -1489h-231l223 1489h-252z" />
<glyph unicode="8" horiz-adv-x="649" d="M59 311v375q0 110 24.5 158t84.5 63q-60 16 -84.5 63.5t-24.5 157.5v226q0 213 50.5 265t216.5 52q164 0 214 -51t50 -266v-226q0 -110 -24.5 -157.5t-84.5 -63.5q60 -15 84.5 -63t24.5 -158v-375q0 -217 -50 -267t-214 -50q-165 0 -216 51.5t-51 265.5zM287 229 q0 -33 9 -47t30 -14q19 0 27.5 14t8.5 47v525q0 32 -8.5 45.5t-27.5 13.5q-21 0 -30 -13.5t-9 -45.5v-525zM287 1073q0 -33 9 -47t30 -14q19 0 27.5 14t8.5 47v363q0 32 -8.5 45.5t-27.5 13.5q-21 0 -30 -13.5t-9 -45.5v-363z" />
<glyph unicode="9" horiz-adv-x="649" d="M57 311v258h228v-340q0 -33 9 -47t30 -14q19 0 27.5 14t8.5 47v480q-33 -25 -61.5 -36t-58.5 -11q-96 0 -139.5 62.5t-43.5 203.5v424q0 216 50.5 267.5t207.5 51.5q171 0 222 -51.5t51 -267.5v-1041q0 -215 -49.5 -266t-214.5 -51q-167 0 -217 51t-50 266zM285 907 q0 -32 9 -45.5t30 -13.5q19 0 27.5 13.5t8.5 45.5v529q0 32 -8.5 45.5t-27.5 13.5q-21 0 -30 -13.5t-9 -45.5v-529z" />
<glyph unicode=":" horiz-adv-x="326" d="M72 0v285h180v-285h-180zM72 1071v285h180v-285h-180z" />
<glyph unicode=";" horiz-adv-x="326" d="M72 0v285h180v-316q0 -107 -46 -166t-134 -65v133q34 9 51.5 34t17.5 66v29h-69zM72 1071v285h180v-285h-180z" />
<glyph unicode="&#x3c;" horiz-adv-x="1706" d="M264 547v129l1178 483v-153l-969 -396l969 -393v-154z" />
<glyph unicode="=" horiz-adv-x="1706" d="M254 342v139h1198v-139h-1198zM254 739v140h1198v-140h-1198z" />
<glyph unicode="&#x3e;" horiz-adv-x="1706" d="M264 63v154l971 393l-971 396v153l1178 -483v-129z" />
<glyph unicode="?" horiz-adv-x="631" d="M49 1094v260q0 213 50.5 265t215.5 52q166 0 216.5 -52t50.5 -265v-183q0 -55 -11.5 -113t-42.5 -149l-61 -188q-11 -34 -16 -58.5t-5 -46.5v-227h-229v262q0 30 24 99l9 26l78 228q11 35 17.5 67t6.5 55v310q0 32 -8.5 45.5t-28.5 13.5t-29.5 -13.5t-9.5 -45.5v-342 h-227zM217 0v281h229v-281h-229z" />
<glyph unicode="@" horiz-adv-x="2048" d="M106 522q0 165 52 313t151 269q146 178 351.5 270t455.5 92q163 0 310 -45t253 -127q130 -100 197.5 -231t67.5 -283q0 -175 -63.5 -315t-184.5 -236q-68 -54 -149.5 -83t-166.5 -29q-99 0 -149.5 39.5t-50.5 117.5v19q-55 -89 -129 -131.5t-172 -42.5q-153 0 -233.5 85 t-80.5 247q0 235 138 394t339 159q85 0 145.5 -37.5t96.5 -112.5l57 115h132l-146 -576q-4 -16 -6 -31t-2 -28q0 -46 25.5 -70t74.5 -24q48 0 102.5 26.5t106.5 75.5q80 76 125 186.5t45 233.5q0 259 -190.5 420t-499.5 161q-133 0 -246 -28t-211 -86q-191 -114 -296 -299.5 t-105 -409.5q0 -177 61.5 -308t192.5 -230q100 -77 236.5 -118.5t287.5 -41.5q169 0 328.5 49t292.5 141l55 -82q-148 -111 -314.5 -167t-349.5 -56q-190 0 -348 47t-280 140q-154 118 -230 274t-76 354zM725 446q0 -105 48.5 -162t137.5 -57q97 0 174.5 69t104.5 179 l59 236q-17 88 -68.5 136t-129.5 48q-138 0 -232 -130t-94 -319z" />
<glyph unicode="A" horiz-adv-x="672" d="M33 0l125 1663h338l125 -1663h-228l-16 379h-101l-14 -379h-229zM285 555h86l-41 860h-6z" />
<glyph unicode="B" horiz-adv-x="668" d="M70 0v1663h305q120 0 172.5 -59.5t52.5 -192.5v-258q0 -105 -22.5 -159.5t-77.5 -88.5q55 -31 77.5 -79t22.5 -162v-336q0 -212 -53.5 -270t-224.5 -58h-252zM297 177q4 -2 8.5 -2.5t11.5 -0.5q28 0 42 16t14 48v495q0 29 -13.5 44.5t-37.5 15.5h-25v-616zM297 990 q5 -2 9 -2.5t11 -0.5q28 0 42 16t14 48v379q0 28 -13.5 43.5t-37.5 15.5h-25v-499z" />
<glyph unicode="C" horiz-adv-x="629" d="M59 309v1043q0 213 50.5 265t216.5 52q164 0 214 -51t50 -266v-256h-228v338q0 32 -8.5 45.5t-27.5 13.5q-21 0 -30 -13.5t-9 -45.5v-1207q0 -33 9 -47t30 -14q19 0 27.5 14t8.5 47v475h228v-393q0 -215 -50 -266t-208 -51q-172 0 -222.5 50.5t-50.5 266.5z" />
<glyph unicode="D" horiz-adv-x="668" d="M70 0v1663h301q137 0 183 -56t46 -278v-995q0 -222 -46 -278t-183 -56h-301zM297 176h16q36 0 48 13t12 71v10v1133q0 59 -12 72.5t-48 13.5h-16v-1313z" />
<glyph unicode="E" horiz-adv-x="494" d="M70 0v1663h362v-174h-135v-490h135v-176h-135v-647h135v-176h-362z" />
<glyph unicode="F" horiz-adv-x="487" d="M78 0v1663h364v-174h-137v-490h137v-176h-137v-823h-227z" />
<glyph unicode="G" horiz-adv-x="659" d="M59 219v1133q0 215 50.5 266t220.5 51t220 -51t50 -266v-262h-227v344q0 33 -10 46t-33 13q-24 0 -33.5 -13t-9.5 -46v-1207q0 -34 10 -47.5t33 -13.5t33 13.5t10 47.5v465h-49v176h276v-868h-88l-31 82q-35 -48 -81.5 -69t-114.5 -21q-114 0 -170 56.5t-56 170.5z" />
<glyph unicode="H" horiz-adv-x="666" d="M70 0v1663h221v-653h84v653h223v-1663h-223v834h-84v-834h-221z" />
<glyph unicode="I" horiz-adv-x="365" d="M70 0v1663h227v-1663h-227z" />
<glyph unicode="J" horiz-adv-x="604" d="M35 309v387h196v-469q0 -33 9.5 -47t29.5 -14t28.5 14t8.5 47v1436h230v-1354q0 -212 -50.5 -264.5t-201.5 -52.5t-200.5 51.5t-49.5 265.5z" />
<glyph unicode="K" horiz-adv-x="633" d="M70 0v1663h221v-657h12l84 657h225l-143 -727l143 -936h-225l-84 817h-12v-817h-221z" />
<glyph unicode="L" horiz-adv-x="436" d="M70 0v1663h227v-1487h135v-176h-362z" />
<glyph unicode="M" horiz-adv-x="842" d="M70 0v1663h249l93 -760h16l94 760h250v-1663h-199l19 1004h-23l-96 -1004h-106l-97 1004h-22l20 -1004h-198z" />
<glyph unicode="N" horiz-adv-x="680" d="M70 0v1665h190l146 -813h16l-8 813h198v-1665h-190l-150 885h-16l12 -885h-198z" />
<glyph unicode="O" horiz-adv-x="649" d="M59 309v1043q0 213 50.5 265t216.5 52q164 0 214 -51t50 -266v-1043q0 -215 -50 -266t-208 -51q-172 0 -222.5 50.5t-50.5 266.5zM287 227q0 -33 9 -47t30 -14q19 0 27.5 14t8.5 47v1207q0 32 -8.5 45.5t-27.5 13.5q-21 0 -30 -13.5t-9 -45.5v-1207z" />
<glyph unicode="P" horiz-adv-x="637" d="M70 0v1663h301q137 0 183 -56t46 -278v-381q0 -222 -46 -278t-183 -56h-74v-614h-227zM297 788h16q36 0 48 14t12 72v11v518q0 59 -12 72.5t-48 13.5h-16v-701z" />
<glyph unicode="Q" horiz-adv-x="649" d="M59 309v1043q0 213 50.5 265t216.5 52q164 0 214 -51t50 -266v-1041q0 -200 -39.5 -253.5t-151.5 -65.5v-4q24 -4 49 -6t54 -2q28 0 43.5 0.5t27.5 0.5l-84 -145q-78 12 -143.5 51t-120.5 107q-96 17 -131 69t-35 246zM287 227q0 -33 9 -47t30 -14q19 0 27.5 14t8.5 47 v1207q0 32 -8.5 45.5t-27.5 13.5q-21 0 -30 -13.5t-9 -45.5v-1207z" />
<glyph unicode="R" horiz-adv-x="666" d="M70 0v1663h301q137 0 183 -56t46 -278v-254q0 -104 -23.5 -159.5t-78.5 -88.5q56 -30 79 -79t23 -162v-586h-227v655q0 32 -14 46t-46 14h-16v-715h-227zM297 912q5 -2 9 -2.5t11 -0.5q28 0 42 16t14 48v430q0 59 -12 72.5t-48 13.5h-16v-577z" />
<glyph unicode="S" horiz-adv-x="647" d="M57 309v393h228v-475q0 -34 8.5 -47.5t28.5 -13.5q19 0 28.5 15t9.5 46v441q0 42 -10 57t-47 39l-141 86q-57 35 -81 81t-24 144v277q0 215 50 266t215 51t215.5 -52t50.5 -265v-256h-228v338q0 31 -9 45t-29 14q-21 0 -29 -12.5t-8 -46.5v-342q0 -44 10.5 -60t46.5 -39 l139 -84q58 -35 82.5 -83t24.5 -144v-373q0 -215 -50.5 -266t-222.5 -51q-157 0 -207.5 51.5t-50.5 265.5z" />
<glyph unicode="T" horiz-adv-x="457" d="M10 1489v174h436v-174h-104v-1489h-227v1489h-105z" />
<glyph unicode="U" horiz-adv-x="659" d="M63 309v1354h228v-1436q0 -33 9 -47t30 -14q19 0 28 14t9 47v1436h229v-1354q0 -213 -50.5 -265t-209.5 -52q-172 0 -222.5 50.5t-50.5 266.5z" />
<glyph unicode="V" horiz-adv-x="629" d="M33 1663h227l49 -1145h10l64 1145h213l-143 -1663h-277z" />
<glyph unicode="W" horiz-adv-x="874" d="M-12 1663h227l53 -922h17l65 922h189l84 -922h18l33 922h213l-115 -1663h-225l-82 956h-19l-81 -956h-230z" />
<glyph unicode="X" horiz-adv-x="637" d="M33 0l110 889l-104 774h225l68 -602h8l61 602h203l-110 -774l112 -889h-225l-74 752h-8l-66 -752h-200z" />
<glyph unicode="Y" horiz-adv-x="573" d="M6 1663h227l66 -639l53 639h213l-149 -983v-680h-230v680z" />
<glyph unicode="Z" horiz-adv-x="510" d="M45 0v184l195 1305h-170v174h393v-174l-195 -1305h195v-184h-418z" />
<glyph unicode="[" horiz-adv-x="362" d="M70 -201v1864h276v-178h-74v-1508h74v-178h-276z" />
<glyph unicode="\" horiz-adv-x="418" d="M-12 1663h133l280 -1853h-133z" />
<glyph unicode="]" horiz-adv-x="362" d="M16 -23h74v1508h-74v178h279v-1864h-279v178z" />
<glyph unicode="^" horiz-adv-x="2048" d="M420 901l510 557h186l510 -557h-180l-422 420l-424 -420h-180z" />
<glyph unicode="_" horiz-adv-x="1024" d="M0 -340h1024v-143h-1024v143z" />
<glyph unicode="`" horiz-adv-x="1024" d="M356 1614h168l66 -176h-129z" />
<glyph unicode="a" d="M49 262v313q0 64 23.5 104t79.5 73l153 90v342q0 10 -8.5 18t-20.5 8q-17 0 -24.5 -12t-7.5 -43v-254h-195v277q0 103 49.5 144.5t175.5 41.5q127 0 176.5 -41.5t49.5 -144.5v-1178h-195v49q-23 -28 -53 -42.5t-64 -14.5q-75 0 -107 56.5t-32 213.5zM244 201 q0 -32 7.5 -44t24.5 -12q16 0 22.5 10t6.5 46v458l-37 -26q-13 -11 -18.5 -22t-5.5 -27v-9v-374z" />
<glyph unicode="b" horiz-adv-x="578" d="M63 0v1663h195v-356q23 27 53.5 42t63.5 15q75 0 107 -56.5t32 -213.5v-832q0 -157 -32 -213.5t-107 -56.5q-34 0 -64 14.5t-53 42.5v-49h-195zM258 205q0 -31 7.5 -43t25.5 -12q16 0 22 9.5t6 45.5v944v27q0 11 -8 19.5t-20 8.5q-18 0 -25.5 -12t-7.5 -43v-944z" />
<glyph unicode="c" d="M49 178v1000q0 103 49.5 144.5t175.5 41.5q127 0 176.5 -41.5t49.5 -144.5v-379h-195v385q0 10 -8.5 18t-20.5 8q-17 0 -24.5 -12t-7.5 -43v-954q0 -32 7.5 -44t24.5 -12q16 0 22.5 10t6.5 46v385h195v-408q0 -102 -49.5 -143t-176.5 -41t-176 41t-49 143z" />
<glyph unicode="d" horiz-adv-x="578" d="M63 262v832q0 157 32.5 213.5t107.5 56.5q32 0 63 -15t53 -42v356h195v-1663h-195v49q-23 -28 -53 -42.5t-63 -14.5q-75 0 -107.5 56.5t-32.5 213.5zM258 205q0 -34 7 -44.5t24 -10.5t23.5 11t6.5 44v944v22q0 15 -8.5 24t-21.5 9t-22 -9t-9 -19v-27v-944z" />
<glyph unicode="e" d="M49 178v1000q0 103 49.5 144.5t175.5 41.5q127 0 176.5 -41.5t49.5 -144.5v-541h-256v-436q0 -32 7.5 -44t24.5 -12q16 0 22.5 10t6.5 46v305h195v-328q0 -102 -49.5 -143t-176.5 -41t-176 41t-49 143zM244 788h61v394q0 11 -8.5 19.5t-20.5 8.5q-17 0 -24.5 -12 t-7.5 -43v-367z" />
<glyph unicode="f" horiz-adv-x="352" d="M16 1204v152h54v98q0 122 43.5 169.5t148.5 47.5h98v-151h-63q-19 0 -27 -13.5t-8 -52.5v-98h96v-152h-96v-1204h-192v1204h-54z" />
<glyph unicode="g" horiz-adv-x="563" d="M49 -166h205q31 0 41 10t10 45v162q-22 -27 -52 -41t-65 -14q-75 0 -107 56t-32 212v830q0 157 32 213.5t107 56.5q33 0 63.5 -15t53.5 -42v45h195v-1436q0 -146 -41.5 -189.5t-171.5 -43.5h-238v151zM244 209q0 -34 7 -44.5t23 -10.5q18 0 24.5 11t6.5 44v942v23 q0 14 -8.5 23t-22.5 9q-12 0 -21 -9t-9 -19v-27v-942z" />
<glyph unicode="h" horiz-adv-x="578" d="M63 0v1663h195v-356q23 27 53.5 42t63.5 15q75 0 107 -56.5t32 -213.5v-1094h-195v1178q0 10 -8.5 19t-19.5 9q-18 0 -25.5 -12t-7.5 -43v-1151h-195z" />
<glyph unicode="i" horiz-adv-x="322" d="M63 0v1356h195v-1356h-195zM63 1475v188h195v-188h-195z" />
<glyph unicode="j" horiz-adv-x="322" d="M-49 -166h61q31 0 41 10t10 45v1467h195v-1440q0 -146 -41 -189.5t-172 -43.5h-94v151zM63 1475v188h195v-188h-195z" />
<glyph unicode="k" horiz-adv-x="569" d="M63 0v1663h181v-795h16l76 488h188l-112 -590l139 -766h-199l-92 668h-16v-668h-181z" />
<glyph unicode="l" horiz-adv-x="322" d="M63 0v1663h195v-1663h-195z" />
<glyph unicode="m" horiz-adv-x="827" d="M72 0v1356h186v-62q26 33 59 51.5t64 18.5q34 0 65 -18t52 -52q22 35 51.5 52.5t66.5 17.5q73 0 106.5 -55.5t33.5 -182.5v-1126h-187v1178q0 10 -9.5 19t-20.5 9q-17 0 -24 -11t-7 -44v-1151h-189v1178q0 10 -8.5 19t-19.5 9q-18 0 -25.5 -12t-7.5 -43v-1151h-186z" />
<glyph unicode="n" horiz-adv-x="578" d="M63 0v1352h195v-45q23 27 53.5 42t63.5 15q75 0 107 -56.5t32 -213.5v-1094h-195v1178q0 10 -8.5 19t-19.5 9q-18 0 -25.5 -12t-7.5 -43v-1151h-195z" />
<glyph unicode="o" d="M49 178v1000q0 103 49.5 144.5t175.5 41.5q127 0 176.5 -41.5t49.5 -144.5v-1000q0 -102 -49.5 -143t-176.5 -41t-176 41t-49 143zM244 201q0 -32 7.5 -44t24.5 -12q16 0 22.5 10t6.5 46v954v27q0 11 -8.5 19.5t-20.5 8.5q-17 0 -24.5 -12t-7.5 -43v-954z" />
<glyph unicode="p" horiz-adv-x="563" d="M63 -317v1669h195v-45q23 27 53.5 42t63.5 15q75 0 107 -56.5t32 -213.5v-832q0 -157 -32 -213.5t-107 -56.5q-34 0 -64 14.5t-53 42.5v-366h-195zM258 207q0 -31 7.5 -43t25.5 -12q16 0 22 9.5t6 45.5v944v27q0 11 -8 19.5t-20 8.5q-18 0 -25.5 -12t-7.5 -43v-944z" />
<glyph unicode="q" horiz-adv-x="563" d="M49 262v832q0 157 32 213.5t107 56.5q33 0 63.5 -15t53.5 -42v45h195v-1669h-195v366q-23 -28 -53 -42.5t-64 -14.5q-75 0 -107 56.5t-32 213.5zM244 207q0 -34 7 -44.5t23 -10.5q18 0 24.5 11t6.5 44v944v23q0 14 -8.5 23t-22.5 9q-12 0 -21 -9t-9 -19v-27v-944z" />
<glyph unicode="r" horiz-adv-x="537" d="M63 0v1352h195v-45q23 27 53.5 42t63.5 15q75 0 107 -56.5t32 -213.5v-287h-195v371q0 10 -8.5 19t-19.5 9q-18 0 -25.5 -12t-7.5 -43v-1151h-195z" />
<glyph unicode="s" horiz-adv-x="545" d="M47 266v240h195v-311q0 -27 7.5 -39.5t22.5 -12.5q16 0 23.5 12.5t7.5 39.5v368q0 14 -13 30.5t-34 29.5l-119 69q-49 28 -69.5 68.5t-20.5 124.5v207q0 183 43 227.5t182 44.5q140 0 183 -44t43 -228v-185h-195v254q0 27 -7.5 39t-23.5 12q-15 0 -22.5 -13t-7.5 -38 v-272q0 -29 10 -43t37 -31l119 -74q49 -30 69.5 -67.5t20.5 -122.5v-285q0 -186 -43.5 -229t-186.5 -43q-134 0 -177.5 44t-43.5 228z" />
<glyph unicode="t" horiz-adv-x="350" d="M18 1204v152h48v307h194v-307h80v-152h-80v-997q0 -36 11 -45.5t59 -9.5h10v-152h-59q-132 0 -173.5 43.5t-41.5 189.5v971h-48z" />
<glyph unicode="u" horiz-adv-x="578" d="M63 262v1094h195v-1178q0 -11 9 -19.5t22 -8.5q17 0 23.5 11t6.5 44v1151h195v-1356h-195v49q-23 -28 -53 -42.5t-63 -14.5q-75 0 -107.5 56.5t-32.5 213.5z" />
<glyph unicode="v" horiz-adv-x="524" d="M31 1356h186l39 -875h10l37 875h189l-121 -1356h-219z" />
<glyph unicode="w" horiz-adv-x="772" d="M29 1356h188l33 -676h18l47 676h142l47 -676h18l33 676h190l-118 -1356h-176l-56 715h-18l-55 -715h-177z" />
<glyph unicode="x" horiz-adv-x="537" d="M16 0l105 748l-101 608h201l41 -471h8l45 471h201l-106 -608l108 -748h-205l-43 553h-8l-43 -553h-203z" />
<glyph unicode="y" horiz-adv-x="512" d="M-35 -166h137q30 0 41 8.5t11 30.5v14l-127 1469h176l45 -836h16l45 836h176l-127 -1440q-14 -151 -55 -192t-168 -41h-170v151z" />
<glyph unicode="z" horiz-adv-x="463" d="M41 0v180l186 1020h-172v156h365v-180l-184 -1020h198v-156h-393z" />
<glyph unicode="{" horiz-adv-x="1024" d="M168 457v149q8 0 23 -1t22 -1q130 0 184 60.5t54 207.5v246q0 148 22.5 210.5t77.5 96.5q45 28 108.5 40t169.5 12h37v-150h-41q-120 0 -161 -44.5t-41 -184.5v-242q0 -160 -44.5 -228t-156.5 -98q113 -28 157 -96t44 -229v-242q0 -141 41.5 -185t162.5 -44h39v-148h-43 q-108 0 -169 11.5t-103 37.5q-55 34 -77.5 97t-22.5 211v245q0 149 -54.5 210t-185.5 61q-7 0 -21.5 -1t-21.5 -1z" />
<glyph unicode="|" horiz-adv-x="1024" d="M438 -483v2048h150v-2048h-150z" />
<glyph unicode="}" horiz-adv-x="1024" d="M160 -266h39q120 0 162 45t42 186v240q0 160 44.5 228t156.5 97q-112 30 -156.5 98t-44.5 228v242q0 140 -42 184.5t-162 44.5h-39v150h37q107 0 171 -12.5t107 -39.5q55 -34 77.5 -96.5t22.5 -210.5v-246q0 -147 54 -207.5t184 -60.5q7 0 22 1t23 1v-149q-7 0 -22 1 t-21 1q-132 0 -186 -60.5t-54 -210.5v-245q0 -148 -22.5 -211t-77.5 -97q-42 -26 -103 -37.5t-169 -11.5h-43v148z" />
<glyph unicode="~" horiz-adv-x="1706" d="M178 451v155q106 72 202 108t185 36q62 0 127.5 -13.5t163.5 -48.5q16 -5 47 -17q159 -57 240 -57q88 0 179.5 37t207.5 119v-156q-104 -72 -199 -106.5t-190 -34.5q-93 0 -256 58q-22 8 -34 12q-5 2 -15 5q-176 60 -273 60q-84 0 -175 -37t-210 -120z" />
<glyph unicode="&#xa1;" horiz-adv-x="346" d="M59 0l37 1262h154l37 -1262h-228zM59 1380v283h228v-283h-228z" />
<glyph unicode="&#xa2;" horiz-adv-x="649" d="M59 309v735q0 201 39.5 254.5t148.5 61.5l1 106h153v-106q110 -8 149.5 -62t39.5 -254v-245h-228v327q0 33 -8.5 47.5t-27.5 14.5q-21 0 -30 -14t-9 -48v-899q0 -33 9 -47t30 -14q19 0 27.5 14t8.5 47v359h228v-277q0 -199 -39.5 -253.5t-149.5 -61.5v-107h-153v107 q-110 7 -149.5 60.5t-39.5 254.5z" />
<glyph unicode="&#xa3;" horiz-adv-x="649" d="M0 809v180h76v365q0 213 50 265t216 52q165 0 214.5 -51t49.5 -266v-260h-227v342q0 32 -8.5 45.5t-28.5 13.5q-21 0 -30 -13.5t-9 -45.5v-447h221v-180h-221v-633h16q36 0 48 13t12 71v10v435h227v-371q0 -222 -45.5 -278t-183.5 -56h-301v809h-76z" />
<glyph unicode="&#xa4;" horiz-adv-x="1241" d="M80 428l207 205q-41 51 -62.5 116t-21.5 136q0 70 21 133t63 119l-207 206l82 80l205 -204q57 43 120 64.5t134 21.5t134.5 -21.5t121.5 -64.5l204 204l82 -80l-205 -206q41 -55 61.5 -118t20.5 -134q0 -73 -20 -135.5t-62 -116.5l205 -205l-82 -82l-204 205 q-59 -44 -122 -65t-132 -21q-72 0 -135.5 21.5t-120.5 64.5l-205 -205zM319 887q0 -126 89 -215.5t215 -89.5q125 0 214 89.5t89 215.5q0 125 -89 214t-214 89q-126 0 -215 -89t-89 -214z" />
<glyph unicode="&#xa5;" horiz-adv-x="573" d="M6 1663h227l66 -639l53 639h213l-127 -836h103v-147h-125v-680h-230v680h-125v147h99z" />
<glyph unicode="&#xa6;" horiz-adv-x="1024" d="M438 -350v758h150v-758h-150zM438 674v758h150v-758h-150z" />
<glyph unicode="&#xa7;" horiz-adv-x="649" d="M57 668v209q0 92 17 133t57 57q-33 25 -46 59.5t-13 122.5v103q0 212 49.5 264.5t202.5 52.5q151 0 200 -51t49 -266v-82h-208v164q0 34 -9.5 46.5t-31.5 12.5q-24 0 -33.5 -13t-9.5 -46v-168q0 -43 12.5 -60t48.5 -39l141 -86q57 -34 81 -81t24 -144v-207 q0 -90 -16 -132.5t-53 -58.5q30 -23 42 -58t12 -126v-145q0 -215 -49.5 -267t-199.5 -52q-148 0 -198 53t-50 266v82h209v-164q0 -33 9.5 -47t31.5 -14q21 0 30 13t9 48v242q0 15 -15.5 32t-46.5 35l-139 86q-58 36 -82.5 83t-24.5 143zM270 692q0 -37 7 -51t25 -27l73 -57 v274q0 38 -6.5 52t-22.5 26l-76 58v-275z" />
<glyph unicode="&#xa8;" horiz-adv-x="1024" d="M328 1452v162h157v-162h-157zM541 1452v164h157v-164h-157z" />
<glyph unicode="&#xa9;" horiz-adv-x="1706" d="M117 727q0 147 56 281.5t163 242.5q104 104 236 158.5t280 54.5q152 0 285.5 -54.5t238.5 -160.5q104 -103 159.5 -238.5t55.5 -283.5q0 -149 -54.5 -281.5t-158.5 -234.5q-110 -107 -245.5 -164t-280.5 -57t-278.5 56t-239.5 163q-106 105 -161.5 238.5t-55.5 279.5z M213 727q0 -126 49 -242t141 -209q92 -91 207.5 -139.5t243.5 -48.5q125 0 242 49t213 142q90 88 137 202.5t47 245.5q0 130 -47.5 246.5t-136.5 206.5q-93 92 -209 140t-246 48q-129 0 -243.5 -47t-204.5 -137q-93 -93 -143 -211.5t-50 -245.5zM463 733q0 200 109 322.5 t286 122.5q142 0 236.5 -75t105.5 -196h-147q-13 77 -66 118.5t-139 41.5q-105 0 -165 -90.5t-60 -249.5q0 -157 62 -244.5t173 -87.5q82 0 136.5 47t68.5 129h145q-9 -130 -107.5 -211t-248.5 -81q-182 0 -285.5 120t-103.5 334z" />
<glyph unicode="&#xaa;" horiz-adv-x="414" d="M37 899v219q0 45 18 73t60 50l114 64v239q0 7 -7 13t-15 6q-13 0 -19 -9.5t-6 -29.5v-178h-145v194q0 72 37.5 100.5t132.5 28.5q94 0 131 -28.5t37 -100.5v-825h-146v35q-17 -20 -39.5 -30.5t-48.5 -10.5q-56 0 -80 39.5t-24 150.5zM182 856q0 -21 6 -30t19 -9 q13 1 17.5 7t4.5 32v320l-28 -19q-11 -9 -15 -16t-4 -17v-6v-262z" />
<glyph unicode="&#xab;" horiz-adv-x="559" d="M49 682l92 573h146l-90 -573l90 -582h-146zM285 682l92 573h147l-90 -573l90 -582h-147z" />
<glyph unicode="&#xac;" horiz-adv-x="1706" d="M254 721v139h1198v-502h-137v363h-1061z" />
<glyph unicode="&#xad;" horiz-adv-x="526" d="M63 600v176h400v-176h-400z" />
<glyph unicode="&#xae;" horiz-adv-x="1706" d="M117 727q0 146 57.5 282.5t165.5 245.5q101 103 231.5 156t280.5 53q151 0 286 -56t240 -163q103 -104 158 -238t55 -280q0 -151 -55 -283.5t-160 -234.5q-109 -106 -244.5 -162.5t-279.5 -56.5q-147 0 -280.5 56.5t-239.5 164.5q-105 106 -160 238.5t-55 277.5zM213 727 q0 -125 48.5 -240.5t139.5 -207.5q90 -92 206.5 -141.5t240.5 -49.5q130 0 246.5 48t212.5 140q90 88 138 202.5t48 242.5q0 134 -46.5 251t-135.5 206q-92 93 -208.5 141.5t-248.5 48.5q-130 0 -245 -47t-201 -135q-94 -95 -144.5 -214t-50.5 -245zM557 324v835h315 q174 0 261.5 -57.5t87.5 -171.5q0 -89 -50 -148t-141 -77l187 -381h-177l-170 356h-155v-356h-158zM715 780h133q113 0 162 31.5t49 101.5q0 76 -51 110t-164 34h-129v-277z" />
<glyph unicode="&#xaf;" horiz-adv-x="1024" d="M350 1448v154h312v-154h-312z" />
<glyph unicode="&#xb0;" horiz-adv-x="674" d="M49 1167q0 120 84.5 204.5t204.5 84.5q118 0 202.5 -84.5t84.5 -204.5q0 -119 -84 -202.5t-205 -83.5t-204 83t-83 203zM143 1169q0 -81 57 -138.5t138 -57.5t136.5 57.5t55.5 138.5t-55.5 137t-136.5 56t-138 -56t-57 -137z" />
<glyph unicode="&#xb1;" horiz-adv-x="1706" d="M254 29v141h1198v-141h-1198zM254 713v139h528v340h142v-340h528v-139h-528v-340h-142v340h-528z" />
<glyph unicode="&#xb2;" horiz-adv-x="428" d="M39 1325v154q0 129 33 159.5t141 30.5q109 0 142.5 -31.5t33.5 -158.5v-129q0 -24 -5.5 -50.5t-23.5 -76.5l-165 -441h194v-116h-348v116l176 465l1 3q22 60 22 104v174q0 18 -6.5 26.5t-20.5 8.5q-13 0 -19 -7.5t-6 -27.5v-203h-149z" />
<glyph unicode="&#xb3;" horiz-adv-x="428" d="M37 852v238h149v-287q1 -20 7.5 -28.5t19.5 -8.5t19 9t6 28v321q0 15 -6.5 22t-20.5 7h-55v113h55q13 0 20 7t7 21v234q0 18 -6 26.5t-19 8.5q-14 0 -20.5 -8.5t-6.5 -26.5v-203h-149v154q0 129 33 159.5t143 30.5q108 0 141 -30.5t33 -159.5v-136q0 -68 -16 -96t-55 -37 q38 -9 54.5 -37.5t16.5 -95.5v-225q0 -128 -33 -159t-137 -31q-113 0 -146.5 30t-33.5 160z" />
<glyph unicode="&#xb4;" horiz-adv-x="1024" d="M434 1438l66 176h168l-105 -176h-129z" />
<glyph unicode="&#xb5;" horiz-adv-x="1151" d="M-113 -428l318 1499h180l-129 -600q-7 -32 -10.5 -64.5t-3.5 -68.5q0 -99 52 -153t148 -54q132 0 208.5 92.5t123.5 311.5l115 536h178l-156 -732q-1 -6 -4 -20q-18 -87 -18 -112q0 -37 16.5 -52.5t55.5 -15.5q12 0 18.5 0.5t13.5 1.5l-31 -143q-24 -5 -50 -7.5t-58 -2.5 q-63 0 -97 29t-52 100q-45 -66 -112.5 -98.5t-158.5 -32.5q-82 0 -143 27.5t-113 88.5l-110 -530h-181z" />
<glyph unicode="&#xb6;" horiz-adv-x="1024" d="M66 1130q0 157 107.5 253t285.5 96h499v-86h-120v-1393h-111v1393h-176v-1393h-113v782q-170 8 -271 102.5t-101 245.5z" />
<glyph unicode="&#xb7;" horiz-adv-x="326" d="M49 831q0 46 33.5 80.5t79.5 34.5q47 0 80.5 -33.5t33.5 -81.5q0 -44 -35 -78t-79 -34q-43 0 -78 34.5t-35 77.5z" />
<glyph unicode="&#xb8;" horiz-adv-x="1024" d="M365 -150h84q37 0 55 16t18 48q0 18 -6 39.5t-18 46.5h104q30 -44 43.5 -78.5t13.5 -66.5q0 -78 -50 -114t-158 -36q-15 0 -45 3l-41 3v139z" />
<glyph unicode="&#xb9;" horiz-adv-x="315" d="M8 1425v111q43 11 71 43.5t38 83.5h121v-997h-150v759h-80z" />
<glyph unicode="&#xba;" horiz-adv-x="414" d="M37 840v700q0 72 37.5 100.5t132.5 28.5q94 0 131 -28.5t37 -100.5v-700q0 -72 -37 -100.5t-131 -28.5q-95 0 -132.5 28.5t-37.5 100.5zM182 856q0 -21 6 -30t19 -9q13 1 17.5 7t4.5 32v668v18q0 8 -6.5 14.5t-15.5 6.5q-13 0 -19 -9.5t-6 -29.5v-668z" />
<glyph unicode="&#xbb;" horiz-adv-x="559" d="M35 100l92 582l-92 573h147l92 -573l-92 -582h-147zM272 100l90 582l-90 573h148l90 -573l-90 -582h-148z" />
<glyph unicode="&#xbc;" horiz-adv-x="948" d="M8 1442v100q42 11 68.5 42.5t34.5 78.5h116v-932h-143v711h-76zM63 -6l578 1677h133l-575 -1677h-136zM551 281v98l113 553h215v-553h36v-98h-36v-281h-140v281h-188zM682 379h63v428h-6z" />
<glyph unicode="&#xbd;" horiz-adv-x="948" d="M8 1442v100q42 11 68.5 42.5t34.5 78.5h116v-932h-143v711h-76zM63 -6l578 1677h133l-575 -1677h-136zM575 614v144q0 120 32 149t136 29t135 -29t31 -149v-121q0 -25 -6 -52.5t-20 -64.5l-158 -411h184v-109h-329v109l165 434l1 2q22 56 22 98v162q0 16 -6.5 24.5 t-18.5 8.5q-13 -1 -18.5 -8t-5.5 -25v-191h-144z" />
<glyph unicode="&#xbe;" horiz-adv-x="1055" d="M35 905v221h143v-266q0 -20 5.5 -27.5t19.5 -7.5q12 0 17 8t5 27v299q0 15 -5.5 21t-18.5 6h-54v106h54q13 0 18.5 6t5.5 21v217q0 18 -5 25.5t-17 7.5q-14 -1 -19.5 -8t-5.5 -25v-190h-143v143q0 120 31.5 149t136.5 29q104 0 136 -29t32 -149v-125q0 -63 -16 -90 t-54 -35q38 -8 54 -34.5t16 -88.5v-211q0 -119 -32 -148.5t-132 -29.5q-108 0 -140 28.5t-32 149.5zM172 -6l578 1677h133l-576 -1677h-135zM659 281v98l113 553h215v-553h37v-98h-37v-281h-139v281h-189zM791 379h63v428h-6z" />
<glyph unicode="&#xbf;" horiz-adv-x="631" d="M49 311v183q0 96 49 247l4 13l62 190l1 5q19 65 19 100v225h228v-262q0 -33 -28 -117l-3 -8l-78 -225q-13 -38 -20 -70t-7 -55v-308q0 -33 9.5 -47t29.5 -14t28.5 14t8.5 47v340h230v-258q0 -214 -50 -265.5t-217 -51.5q-166 0 -216 51.5t-50 265.5zM184 1384v279h228 v-279h-228z" />
<glyph unicode="&#xc0;" horiz-adv-x="672" d="M33 0l125 1663h338l125 -1663h-228l-16 379h-101l-14 -379h-229zM285 555h86l-41 860h-6zM180 1911h168l66 -176h-129z" />
<glyph unicode="&#xc1;" horiz-adv-x="672" d="M33 0l125 1663h338l125 -1663h-228l-16 379h-101l-14 -379h-229zM285 555h86l-41 860h-6zM258 1735l66 176h168l-105 -176h-129z" />
<glyph unicode="&#xc2;" horiz-adv-x="672" d="M33 0l125 1663h338l125 -1663h-228l-16 379h-101l-14 -379h-229zM285 555h86l-41 860h-6zM143 1735l113 176h160l113 -176h-140l-53 69l-53 -69h-140z" />
<glyph unicode="&#xc3;" horiz-adv-x="672" d="M33 0l125 1663h338l125 -1663h-228l-16 379h-101l-14 -379h-229zM285 555h86l-41 860h-6zM139 1735v49q0 57 22.5 84.5t68.5 27.5q7 0 22 -3q2 0 4 -1l123 -22q2 0 6 -1t6 -1q19 0 31 12t12 31h101v-49q0 -58 -22.5 -85.5t-67.5 -27.5q-13 0 -18 0.5t-9 1.5l-123 25 q-2 0 -6 1t-6 1q-19 0 -30.5 -12t-12.5 -31h-101z" />
<glyph unicode="&#xc4;" horiz-adv-x="672" d="M33 0l125 1663h338l125 -1663h-228l-16 379h-101l-14 -379h-229zM285 555h86l-41 860h-6zM152 1749v162h157v-162h-157zM365 1749v164h157v-164h-157z" />
<glyph unicode="&#xc5;" horiz-adv-x="672" d="M33 0l121 1606h346l121 -1606h-228l-16 379h-101l-14 -379h-229zM129 1763v113q0 53 19.5 74.5t70.5 21.5h215q52 0 71 -21t19 -75v-113q0 -54 -20 -76t-70 -22h-215q-50 0 -70 22t-20 76zM256 1819q0 -29 4 -38t14 -9h109q7 0 12.5 6.5t5.5 15.5v25v22q0 12 -5 19.5 t-13 7.5h-109q-8 0 -13 -7.5t-5 -19.5v-22zM285 555h86l-41 799h-6z" />
<glyph unicode="&#xc6;" horiz-adv-x="883" d="M0 0l254 1663h567v-174h-137v-490h137v-176h-137v-647h137v-176h-364v379h-183l-47 -379h-227zM307 555h150v934h-35z" />
<glyph unicode="&#xc7;" horiz-adv-x="629" d="M59 309v1043q0 213 50.5 265t216.5 52q164 0 214 -51t50 -266v-256h-228v338q0 32 -8.5 45.5t-27.5 13.5q-21 0 -30 -13.5t-9 -45.5v-1207q0 -33 9 -47t30 -14q19 0 27.5 14t8.5 47v475h228v-393q0 -215 -50 -266t-208 -51q-172 0 -222.5 50.5t-50.5 266.5zM168 -150h84 q37 0 55 16t18 48q0 18 -6 39.5t-18 46.5h104q30 -44 43.5 -78.5t13.5 -66.5q0 -78 -50 -114t-158 -36q-15 0 -45 3l-41 3v139z" />
<glyph unicode="&#xc8;" horiz-adv-x="494" d="M70 0v1663h362v-174h-135v-490h135v-176h-135v-647h135v-176h-362zM92 1911h168l66 -176h-129z" />
<glyph unicode="&#xc9;" horiz-adv-x="494" d="M70 0v1663h362v-174h-135v-490h135v-176h-135v-647h135v-176h-362zM170 1735l66 176h168l-105 -176h-129z" />
<glyph unicode="&#xca;" horiz-adv-x="494" d="M70 0v1663h362v-174h-135v-490h135v-176h-135v-647h135v-176h-362zM55 1735l113 176h160l113 -176h-140l-53 69l-53 -69h-140z" />
<glyph unicode="&#xcb;" horiz-adv-x="494" d="M70 0v1663h362v-174h-135v-490h135v-176h-135v-647h135v-176h-362zM64 1749v162h157v-162h-157zM277 1749v164h157v-164h-157z" />
<glyph unicode="&#xcc;" horiz-adv-x="365" d="M70 0v1663h227v-1663h-227zM26 1911h168l66 -176h-129z" />
<glyph unicode="&#xcd;" horiz-adv-x="365" d="M70 0v1663h227v-1663h-227zM104 1735l66 176h168l-105 -176h-129z" />
<glyph unicode="&#xce;" horiz-adv-x="365" d="M70 0v1663h227v-1663h-227zM-11 1735l113 176h160l113 -176h-140l-53 69l-53 -69h-140z" />
<glyph unicode="&#xcf;" horiz-adv-x="365" d="M70 0v1663h227v-1663h-227zM-2 1749v162h157v-162h-157zM211 1749v164h157v-164h-157z" />
<glyph unicode="&#xd0;" horiz-adv-x="696" d="M31 862v129h47v672h321q138 0 184 -56t46 -278v-995q0 -222 -46 -278t-184 -56h-321v862h-47zM305 176q7 0 17 -1t14 -1q40 0 52.5 14t12.5 82v1123q0 69 -13.5 83.5t-53.5 14.5q-4 0 -13.5 -1t-15.5 -1v-498h47v-129h-47v-686z" />
<glyph unicode="&#xd1;" horiz-adv-x="680" d="M70 0v1665h190l146 -813h16l-8 813h198v-1665h-190l-150 885h-16l12 -885h-198zM143 1735v49q0 57 22.5 84.5t68.5 27.5q7 0 22 -3q2 0 4 -1l123 -22q2 0 6 -1t6 -1q19 0 31 12t12 31h101v-49q0 -58 -22.5 -85.5t-67.5 -27.5q-13 0 -18 0.5t-9 1.5l-123 25q-2 0 -6 1 t-6 1q-19 0 -30.5 -12t-12.5 -31h-101z" />
<glyph unicode="&#xd2;" horiz-adv-x="649" d="M59 309v1043q0 213 50.5 265t216.5 52q164 0 214 -51t50 -266v-1043q0 -215 -50 -266t-208 -51q-172 0 -222.5 50.5t-50.5 266.5zM287 227q0 -33 9 -47t30 -14q19 0 27.5 14t8.5 47v1207q0 32 -8.5 45.5t-27.5 13.5q-21 0 -30 -13.5t-9 -45.5v-1207zM170 1911h168 l66 -176h-129z" />
<glyph unicode="&#xd3;" horiz-adv-x="649" d="M59 309v1043q0 213 50.5 265t216.5 52q164 0 214 -51t50 -266v-1043q0 -215 -50 -266t-208 -51q-172 0 -222.5 50.5t-50.5 266.5zM287 227q0 -33 9 -47t30 -14q19 0 27.5 14t8.5 47v1207q0 32 -8.5 45.5t-27.5 13.5q-21 0 -30 -13.5t-9 -45.5v-1207zM248 1735l66 176h168 l-105 -176h-129z" />
<glyph unicode="&#xd4;" horiz-adv-x="649" d="M59 309v1043q0 213 50.5 265t216.5 52q164 0 214 -51t50 -266v-1043q0 -215 -50 -266t-208 -51q-172 0 -222.5 50.5t-50.5 266.5zM287 227q0 -33 9 -47t30 -14q19 0 27.5 14t8.5 47v1207q0 32 -8.5 45.5t-27.5 13.5q-21 0 -30 -13.5t-9 -45.5v-1207zM133 1735l113 176 h160l113 -176h-140l-53 69l-53 -69h-140z" />
<glyph unicode="&#xd5;" horiz-adv-x="649" d="M59 309v1043q0 213 50.5 265t216.5 52q164 0 214 -51t50 -266v-1043q0 -215 -50 -266t-208 -51q-172 0 -222.5 50.5t-50.5 266.5zM287 227q0 -33 9 -47t30 -14q19 0 27.5 14t8.5 47v1207q0 32 -8.5 45.5t-27.5 13.5q-21 0 -30 -13.5t-9 -45.5v-1207zM129 1735v49 q0 57 22.5 84.5t68.5 27.5q7 0 22 -3q2 0 4 -1l123 -22q2 0 6 -1t6 -1q19 0 31 12t12 31h101v-49q0 -58 -22.5 -85.5t-67.5 -27.5q-13 0 -18 0.5t-9 1.5l-123 25q-2 0 -6 1t-6 1q-19 0 -30.5 -12t-12.5 -31h-101z" />
<glyph unicode="&#xd6;" horiz-adv-x="649" d="M59 309v1043q0 213 50.5 265t216.5 52q164 0 214 -51t50 -266v-1043q0 -215 -50 -266t-208 -51q-172 0 -222.5 50.5t-50.5 266.5zM287 227q0 -33 9 -47t30 -14q19 0 27.5 14t8.5 47v1207q0 32 -8.5 45.5t-27.5 13.5q-21 0 -30 -13.5t-9 -45.5v-1207zM142 1749v162h157 v-162h-157zM355 1749v164h157v-164h-157z" />
<glyph unicode="&#xd7;" horiz-adv-x="1706" d="M293 141l469 469l-469 469l98 99l469 -469l469 469l98 -99l-469 -469l469 -469l-98 -96l-469 467l-469 -467z" />
<glyph unicode="&#xd8;" horiz-adv-x="649" d="M59 309v1043q0 215 50.5 266t216.5 51q21 0 46 -1.5t56 -4.5l29 123l102 -21l-33 -137q36 -25 50 -76t14 -200v-1043q0 -215 -50 -266t-208 -51q-41 0 -72.5 2.5t-58.5 7.5l-23 -111l-98 21l29 133q-27 26 -38.5 78.5t-11.5 185.5zM287 227q0 -33 9 -47t30 -14 q19 0 27.5 14t8.5 47v1207q0 32 -8.5 45.5t-27.5 13.5q-21 0 -30 -13.5t-9 -45.5v-1207z" />
<glyph unicode="&#xd9;" horiz-adv-x="659" d="M63 309v1354h228v-1436q0 -33 9 -47t30 -14q19 0 28 14t9 47v1436h229v-1354q0 -213 -50.5 -265t-209.5 -52q-172 0 -222.5 50.5t-50.5 266.5zM174 1911h168l66 -176h-129z" />
<glyph unicode="&#xda;" horiz-adv-x="659" d="M63 309v1354h228v-1436q0 -33 9 -47t30 -14q19 0 28 14t9 47v1436h229v-1354q0 -213 -50.5 -265t-209.5 -52q-172 0 -222.5 50.5t-50.5 266.5zM252 1735l66 176h168l-105 -176h-129z" />
<glyph unicode="&#xdb;" horiz-adv-x="659" d="M63 309v1354h228v-1436q0 -33 9 -47t30 -14q19 0 28 14t9 47v1436h229v-1354q0 -213 -50.5 -265t-209.5 -52q-172 0 -222.5 50.5t-50.5 266.5zM137 1735l113 176h160l113 -176h-140l-53 69l-53 -69h-140z" />
<glyph unicode="&#xdc;" horiz-adv-x="659" d="M63 309v1354h228v-1436q0 -33 9 -47t30 -14q19 0 28 14t9 47v1436h229v-1354q0 -213 -50.5 -265t-209.5 -52q-172 0 -222.5 50.5t-50.5 266.5zM146 1749v162h157v-162h-157zM359 1749v164h157v-164h-157z" />
<glyph unicode="&#xdd;" horiz-adv-x="573" d="M6 1663h227l66 -639l53 639h213l-149 -983v-680h-230v680zM209 1735l66 176h168l-105 -176h-129z" />
<glyph unicode="&#xde;" horiz-adv-x="637" d="M70 0v1663h227v-279h74q137 0 183 -56.5t46 -278.5v-379q0 -223 -46 -279.5t-183 -56.5h-74v-334h-227zM297 510h16q36 0 48 13.5t12 72.5v10v518q0 58 -12 71t-48 13h-16v-698z" />
<glyph unicode="&#xdf;" horiz-adv-x="575" d="M63 -6v1491q0 103 51 144.5t181 41.5q129 0 179 -41t50 -145v-357q0 -110 -24.5 -157.5t-83.5 -63.5q59 -15 83.5 -63t24.5 -158v-508q0 -99 -47.5 -141.5t-157.5 -42.5h-26v174q21 4 29 16t8 45v543q-1 23 -9 33t-28 13v183q18 2 27.5 13.5t9.5 34.5v442q0 12 -10 20.5 t-25 8.5q-21 0 -29 -11t-8 -45v-1470h-195z" />
<glyph unicode="&#xe0;" d="M49 262v313q0 64 23.5 104t79.5 73l153 90v342q0 10 -8.5 18t-20.5 8q-17 0 -24.5 -12t-7.5 -43v-254h-195v277q0 103 49.5 144.5t175.5 41.5q127 0 176.5 -41.5t49.5 -144.5v-1178h-195v49q-23 -28 -53 -42.5t-64 -14.5q-75 0 -107 56.5t-32 213.5zM244 201 q0 -32 7.5 -44t24.5 -12q16 0 22.5 10t6.5 46v458l-37 -26q-13 -11 -18.5 -22t-5.5 -27v-9v-374zM120 1614h168l66 -176h-129z" />
<glyph unicode="&#xe1;" d="M49 262v313q0 64 23.5 104t79.5 73l153 90v342q0 10 -8.5 18t-20.5 8q-17 0 -24.5 -12t-7.5 -43v-254h-195v277q0 103 49.5 144.5t175.5 41.5q127 0 176.5 -41.5t49.5 -144.5v-1178h-195v49q-23 -28 -53 -42.5t-64 -14.5q-75 0 -107 56.5t-32 213.5zM244 201 q0 -32 7.5 -44t24.5 -12q16 0 22.5 10t6.5 46v458l-37 -26q-13 -11 -18.5 -22t-5.5 -27v-9v-374zM198 1438l66 176h168l-105 -176h-129z" />
<glyph unicode="&#xe2;" d="M49 262v313q0 64 23.5 104t79.5 73l153 90v342q0 10 -8.5 18t-20.5 8q-17 0 -24.5 -12t-7.5 -43v-254h-195v277q0 103 49.5 144.5t175.5 41.5q127 0 176.5 -41.5t49.5 -144.5v-1178h-195v49q-23 -28 -53 -42.5t-64 -14.5q-75 0 -107 56.5t-32 213.5zM244 201 q0 -32 7.5 -44t24.5 -12q16 0 22.5 10t6.5 46v458l-37 -26q-13 -11 -18.5 -22t-5.5 -27v-9v-374zM83 1438l113 176h160l113 -176h-140l-53 69l-53 -69h-140z" />
<glyph unicode="&#xe3;" d="M49 262v313q0 64 23.5 104t79.5 73l153 90v342q0 10 -8.5 18t-20.5 8q-17 0 -24.5 -12t-7.5 -43v-254h-195v277q0 103 49.5 144.5t175.5 41.5q127 0 176.5 -41.5t49.5 -144.5v-1178h-195v49q-23 -28 -53 -42.5t-64 -14.5q-75 0 -107 56.5t-32 213.5zM244 201 q0 -32 7.5 -44t24.5 -12q16 0 22.5 10t6.5 46v458l-37 -26q-13 -11 -18.5 -22t-5.5 -27v-9v-374zM79 1438v49q0 57 22.5 84.5t68.5 27.5q7 0 22 -3q2 0 4 -1l123 -22q2 0 6 -1t6 -1q19 0 31 12t12 31h101v-49q0 -58 -22.5 -85.5t-67.5 -27.5q-13 0 -18 0.5t-9 1.5l-123 25 q-2 0 -6 1t-6 1q-19 0 -30.5 -12t-12.5 -31h-101z" />
<glyph unicode="&#xe4;" d="M49 262v313q0 64 23.5 104t79.5 73l153 90v342q0 10 -8.5 18t-20.5 8q-17 0 -24.5 -12t-7.5 -43v-254h-195v277q0 103 49.5 144.5t175.5 41.5q127 0 176.5 -41.5t49.5 -144.5v-1178h-195v49q-23 -28 -53 -42.5t-64 -14.5q-75 0 -107 56.5t-32 213.5zM244 201 q0 -32 7.5 -44t24.5 -12q16 0 22.5 10t6.5 46v458l-37 -26q-13 -11 -18.5 -22t-5.5 -27v-9v-374zM92 1452v162h157v-162h-157zM305 1452v164h157v-164h-157z" />
<glyph unicode="&#xe5;" d="M49 262v313q0 64 23.5 104t79.5 73l153 90v342q0 10 -8.5 18t-20.5 8q-17 0 -24.5 -12t-7.5 -43v-254h-195v277q0 103 49.5 144.5t175.5 41.5q127 0 176.5 -41.5t49.5 -144.5v-1178h-195v49q-23 -28 -53 -42.5t-64 -14.5q-75 0 -107 56.5t-32 213.5zM78 1524v110 q0 54 20 76.5t70 22.5h213q52 0 72 -22t20 -77v-110q0 -54 -21 -76.5t-71 -22.5h-213q-50 0 -70 22t-20 77zM203 1579q0 -28 4 -37.5t14 -9.5h111q6 0 11 6.5t5 15.5q0 1 1 4q1 10 1 21v3q-2 11 -2 20q0 12 -4.5 19t-11.5 7h-111q-8 0 -13 -7.5t-5 -18.5v-23zM244 201 q0 -32 7.5 -44t24.5 -12q16 0 22.5 10t6.5 46v458l-37 -26q-13 -11 -18.5 -22t-5.5 -27v-9v-374z" />
<glyph unicode="&#xe6;" horiz-adv-x="807" d="M49 262v313q0 64 23.5 104t79.5 73l153 90v342q0 10 -8.5 18t-20.5 8q-17 0 -24.5 -12t-7.5 -43v-254h-195v277q0 100 48.5 143t160.5 43q50 0 83.5 -9.5t61.5 -31.5q23 21 54 31t73 10q125 0 175.5 -42t50.5 -144v-541h-256v-436q0 -32 7.5 -44t24.5 -12q16 0 22.5 10 t6.5 46v305h195v-328q0 -102 -49.5 -143t-176.5 -41q-98 0 -143 21.5t-70 76.5q-16 -48 -47.5 -73t-74.5 -25q-80 0 -113 53.5t-33 214.5zM244 201q0 -32 7.5 -44t24.5 -12q16 0 22.5 10t6.5 46v458l-37 -26q-13 -11 -18.5 -22t-5.5 -27v-9v-374zM500 788h61v394 q0 11 -8.5 19.5t-20.5 8.5q-17 0 -24.5 -12t-7.5 -43v-367z" />
<glyph unicode="&#xe7;" d="M49 178v1000q0 103 49.5 144.5t175.5 41.5q127 0 176.5 -41.5t49.5 -144.5v-379h-195v385q0 10 -8.5 18t-20.5 8q-17 0 -24.5 -12t-7.5 -43v-954q0 -32 7.5 -44t24.5 -12q16 0 22.5 10t6.5 46v385h195v-408q0 -102 -49.5 -143t-176.5 -41t-176 41t-49 143zM129 -150h84 q37 0 55 16t18 48q0 18 -6 39.5t-18 46.5h104q30 -44 43.5 -78.5t13.5 -66.5q0 -78 -50 -114t-158 -36q-15 0 -45 3l-41 3v139z" />
<glyph unicode="&#xe8;" d="M49 178v1000q0 103 49.5 144.5t175.5 41.5q127 0 176.5 -41.5t49.5 -144.5v-541h-256v-436q0 -32 7.5 -44t24.5 -12q16 0 22.5 10t6.5 46v305h195v-328q0 -102 -49.5 -143t-176.5 -41t-176 41t-49 143zM244 788h61v394q0 11 -8.5 19.5t-20.5 8.5q-17 0 -24.5 -12 t-7.5 -43v-367zM120 1614h168l66 -176h-129z" />
<glyph unicode="&#xe9;" d="M49 178v1000q0 103 49.5 144.5t175.5 41.5q127 0 176.5 -41.5t49.5 -144.5v-541h-256v-436q0 -32 7.5 -44t24.5 -12q16 0 22.5 10t6.5 46v305h195v-328q0 -102 -49.5 -143t-176.5 -41t-176 41t-49 143zM244 788h61v394q0 11 -8.5 19.5t-20.5 8.5q-17 0 -24.5 -12 t-7.5 -43v-367zM198 1438l66 176h168l-105 -176h-129z" />
<glyph unicode="&#xea;" d="M49 178v1000q0 103 49.5 144.5t175.5 41.5q127 0 176.5 -41.5t49.5 -144.5v-541h-256v-436q0 -32 7.5 -44t24.5 -12q16 0 22.5 10t6.5 46v305h195v-328q0 -102 -49.5 -143t-176.5 -41t-176 41t-49 143zM244 788h61v394q0 11 -8.5 19.5t-20.5 8.5q-17 0 -24.5 -12 t-7.5 -43v-367zM83 1438l113 176h160l113 -176h-140l-53 69l-53 -69h-140z" />
<glyph unicode="&#xeb;" d="M49 178v1000q0 103 49.5 144.5t175.5 41.5q127 0 176.5 -41.5t49.5 -144.5v-541h-256v-436q0 -32 7.5 -44t24.5 -12q16 0 22.5 10t6.5 46v305h195v-328q0 -102 -49.5 -143t-176.5 -41t-176 41t-49 143zM244 788h61v394q0 11 -8.5 19.5t-20.5 8.5q-17 0 -24.5 -12 t-7.5 -43v-367zM92 1452v162h157v-162h-157zM305 1452v164h157v-164h-157z" />
<glyph unicode="&#xec;" horiz-adv-x="322" d="M63 0v1356h195v-1356h-195zM6 1614h168l66 -176h-129z" />
<glyph unicode="&#xed;" horiz-adv-x="322" d="M63 0v1356h195v-1356h-195zM84 1438l66 176h168l-105 -176h-129z" />
<glyph unicode="&#xee;" horiz-adv-x="322" d="M63 0v1356h195v-1356h-195zM-31 1438l113 176h160l113 -176h-140l-53 69l-53 -69h-140z" />
<glyph unicode="&#xef;" horiz-adv-x="322" d="M63 0v1356h195v-1356h-195zM-22 1452v162h157v-162h-157zM191 1452v164h157v-164h-157z" />
<glyph unicode="&#xf0;" d="M49 164v926q0 83 40.5 126.5t119.5 43.5q17 -1 34.5 -3t40.5 -8q-11 41 -27.5 82.5t-37.5 83.5l-90 -24l-37 92l90 24l-65 164h178l49 -121l90 27l37 -94l-90 -25l23 -57q96 -236 96 -387v-850q0 -95 -50 -133.5t-176 -38.5q-125 0 -175 38.5t-50 133.5zM244 190 q0 -29 7 -40t25 -11q17 0 23 8.5t6 42.5v877q0 31 -6.5 41t-22.5 10q-17 0 -24.5 -11t-7.5 -40v-877z" />
<glyph unicode="&#xf1;" horiz-adv-x="578" d="M63 0v1352h195v-45q23 27 53.5 42t63.5 15q75 0 107 -56.5t32 -213.5v-1094h-195v1178q0 10 -8.5 19t-19.5 9q-18 0 -25.5 -12t-7.5 -43v-1151h-195zM92 1438v49q0 57 22.5 84.5t68.5 27.5q7 0 22 -3q2 0 4 -1l123 -22q2 0 6 -1t6 -1q19 0 31 12t12 31h101v-49 q0 -58 -22.5 -85.5t-67.5 -27.5q-13 0 -18 0.5t-9 1.5l-123 25q-2 0 -6 1t-6 1q-19 0 -30.5 -12t-12.5 -31h-101z" />
<glyph unicode="&#xf2;" d="M49 178v1000q0 103 49.5 144.5t175.5 41.5q127 0 176.5 -41.5t49.5 -144.5v-1000q0 -102 -49.5 -143t-176.5 -41t-176 41t-49 143zM244 201q0 -32 7.5 -44t24.5 -12q16 0 22.5 10t6.5 46v954v27q0 11 -8.5 19.5t-20.5 8.5q-17 0 -24.5 -12t-7.5 -43v-954zM120 1614h168 l66 -176h-129z" />
<glyph unicode="&#xf3;" d="M49 178v1000q0 103 49.5 144.5t175.5 41.5q127 0 176.5 -41.5t49.5 -144.5v-1000q0 -102 -49.5 -143t-176.5 -41t-176 41t-49 143zM244 201q0 -32 7.5 -44t24.5 -12q16 0 22.5 10t6.5 46v954v27q0 11 -8.5 19.5t-20.5 8.5q-17 0 -24.5 -12t-7.5 -43v-954zM198 1438 l66 176h168l-105 -176h-129z" />
<glyph unicode="&#xf4;" d="M49 178v1000q0 103 49.5 144.5t175.5 41.5q127 0 176.5 -41.5t49.5 -144.5v-1000q0 -102 -49.5 -143t-176.5 -41t-176 41t-49 143zM244 201q0 -32 7.5 -44t24.5 -12q16 0 22.5 10t6.5 46v954v27q0 11 -8.5 19.5t-20.5 8.5q-17 0 -24.5 -12t-7.5 -43v-954zM83 1438 l113 176h160l113 -176h-140l-53 69l-53 -69h-140z" />
<glyph unicode="&#xf5;" d="M49 178v1000q0 103 49.5 144.5t175.5 41.5q127 0 176.5 -41.5t49.5 -144.5v-1000q0 -102 -49.5 -143t-176.5 -41t-176 41t-49 143zM244 201q0 -32 7.5 -44t24.5 -12q16 0 22.5 10t6.5 46v954v27q0 11 -8.5 19.5t-20.5 8.5q-17 0 -24.5 -12t-7.5 -43v-954zM79 1438v49 q0 57 22.5 84.5t68.5 27.5q7 0 22 -3q2 0 4 -1l123 -22q2 0 6 -1t6 -1q19 0 31 12t12 31h101v-49q0 -58 -22.5 -85.5t-67.5 -27.5q-13 0 -18 0.5t-9 1.5l-123 25q-2 0 -6 1t-6 1q-19 0 -30.5 -12t-12.5 -31h-101z" />
<glyph unicode="&#xf6;" d="M49 178v1000q0 103 49.5 144.5t175.5 41.5q127 0 176.5 -41.5t49.5 -144.5v-1000q0 -102 -49.5 -143t-176.5 -41t-176 41t-49 143zM244 201q0 -32 7.5 -44t24.5 -12q16 0 22.5 10t6.5 46v954v27q0 11 -8.5 19.5t-20.5 8.5q-17 0 -24.5 -12t-7.5 -43v-954zM92 1452v162 h157v-162h-157zM305 1452v164h157v-164h-157z" />
<glyph unicode="&#xf7;" horiz-adv-x="1706" d="M254 541v139h1198v-139h-1198zM729 242q0 51 37 88t88 37t88 -37t37 -88q0 -52 -36.5 -88.5t-88.5 -36.5q-53 0 -89 36t-36 89zM729 979q0 52 37 89.5t88 37.5t88 -37.5t37 -89.5q0 -51 -36.5 -88t-88.5 -37t-88.5 36.5t-36.5 88.5z" />
<glyph unicode="&#xf8;" d="M33 -82l36 152q-10 15 -15 39t-5 71v998q0 103 49.5 144.5t175.5 41.5q47 0 77.5 -4.5t58.5 -13.5l26 112l82 -20l-37 -150q10 -14 14.5 -35.5t4.5 -74.5v-998q0 -103 -49.5 -144.5t-176.5 -41.5q-48 0 -79 4.5t-55 13.5l-27 -114zM244 201q0 -32 7.5 -44t24.5 -12 q16 0 22.5 10t6.5 46v954v27q0 11 -8.5 19.5t-20.5 8.5q-17 0 -24.5 -12t-7.5 -43v-954z" />
<glyph unicode="&#xf9;" horiz-adv-x="578" d="M63 262v1094h195v-1178q0 -11 9 -19.5t22 -8.5q17 0 23.5 11t6.5 44v1151h195v-1356h-195v49q-23 -28 -53 -42.5t-63 -14.5q-75 0 -107.5 56.5t-32.5 213.5zM133 1614h168l66 -176h-129z" />
<glyph unicode="&#xfa;" horiz-adv-x="578" d="M63 262v1094h195v-1178q0 -11 9 -19.5t22 -8.5q17 0 23.5 11t6.5 44v1151h195v-1356h-195v49q-23 -28 -53 -42.5t-63 -14.5q-75 0 -107.5 56.5t-32.5 213.5zM211 1438l66 176h168l-105 -176h-129z" />
<glyph unicode="&#xfb;" horiz-adv-x="578" d="M63 262v1094h195v-1178q0 -11 9 -19.5t22 -8.5q17 0 23.5 11t6.5 44v1151h195v-1356h-195v49q-23 -28 -53 -42.5t-63 -14.5q-75 0 -107.5 56.5t-32.5 213.5zM96 1438l113 176h160l113 -176h-140l-53 69l-53 -69h-140z" />
<glyph unicode="&#xfc;" horiz-adv-x="578" d="M63 262v1094h195v-1178q0 -11 9 -19.5t22 -8.5q17 0 23.5 11t6.5 44v1151h195v-1356h-195v49q-23 -28 -53 -42.5t-63 -14.5q-75 0 -107.5 56.5t-32.5 213.5zM105 1452v162h157v-162h-157zM318 1452v164h157v-164h-157z" />
<glyph unicode="&#xfd;" horiz-adv-x="512" d="M-35 -166h137q30 0 41 8.5t11 30.5v14l-127 1469h176l45 -836h16l45 836h176l-127 -1440q-14 -151 -55 -192t-168 -41h-170v151zM178 1438l66 176h168l-105 -176h-129z" />
<glyph unicode="&#xfe;" horiz-adv-x="563" d="M63 -319v1982h195v-356q23 27 53.5 42t63.5 15q75 0 107 -56.5t32 -213.5v-832q0 -157 -32 -213.5t-107 -56.5q-34 0 -64 14.5t-53 42.5v-368h-195zM258 207q0 -31 7.5 -43t25.5 -12q16 0 22 9.5t6 45.5v944v27q0 11 -8 19.5t-20 8.5q-18 0 -25.5 -12t-7.5 -43v-944z" />
<glyph unicode="&#xff;" horiz-adv-x="512" d="M-35 -166h137q30 0 41 8.5t11 30.5v14l-127 1469h176l45 -836h16l45 836h176l-127 -1440q-14 -151 -55 -192t-168 -41h-170v151zM72 1452v162h157v-162h-157zM285 1452v164h157v-164h-157z" />
<glyph unicode="&#x131;" horiz-adv-x="322" d="M63 0v1356h195v-1356h-195z" />
<glyph unicode="&#x152;" horiz-adv-x="764" d="M59 319v1027q0 215 50.5 266t216.5 51h401v-174h-137v-490h137v-176h-137v-647h137v-176h-395q-171 0 -222 51t-51 268zM287 227q0 -37 12 -49t45 -12h18v1327h-20q-33 0 -44 -11.5t-11 -47.5v-1207z" />
<glyph unicode="&#x153;" horiz-adv-x="807" d="M49 178v1000q0 99 49.5 142.5t161.5 43.5q50 0 83.5 -9.5t62.5 -31.5q22 21 52.5 31t73.5 10q125 0 175.5 -42t50.5 -144v-541h-256v-436q0 -33 6.5 -44.5t23.5 -11.5t24 11t7 45v305h195v-328q0 -101 -50 -142.5t-176 -41.5q-45 0 -75 9t-51 30q-29 -22 -62 -31.5 t-84 -9.5q-113 0 -162 43t-49 143zM244 201q0 -32 7.5 -44t24.5 -12q16 0 22.5 10t6.5 46v954v27q0 11 -8.5 19.5t-20.5 8.5q-17 0 -24.5 -12t-7.5 -43v-954zM502 788h61v367v27q0 11 -9.5 19.5t-21.5 8.5q-17 0 -23.5 -11t-6.5 -44v-367z" />
<glyph unicode="&#x178;" horiz-adv-x="573" d="M6 1663h227l66 -639l53 639h213l-149 -983v-680h-230v680zM103 1749v162h157v-162h-157zM316 1749v164h157v-164h-157z" />
<glyph unicode="&#x2c6;" horiz-adv-x="1024" d="M319 1438l113 176h160l113 -176h-140l-53 69l-53 -69h-140z" />
<glyph unicode="&#x2dc;" horiz-adv-x="1024" d="M315 1438v49q0 57 22.5 84.5t68.5 27.5q7 0 22 -3q2 0 4 -1l123 -22q2 0 6 -1t6 -1q19 0 31 12t12 31h101v-49q0 -58 -22.5 -85.5t-67.5 -27.5q-13 0 -18 0.5t-9 1.5l-123 25q-2 0 -6 1t-6 1q-19 0 -30.5 -12t-12.5 -31h-101z" />
<glyph unicode="&#x2013;" horiz-adv-x="1024" d="M0 625v127h1024v-127h-1024z" />
<glyph unicode="&#x2014;" horiz-adv-x="2048" d="M0 625v127h2048v-127h-2048z" />
<glyph unicode="&#x2018;" horiz-adv-x="326" d="M72 1124v316q0 107 45 165t135 66v-132q-34 -10 -51 -34.5t-17 -66.5v-29h68v-285h-180z" />
<glyph unicode="&#x2019;" horiz-adv-x="326" d="M72 1118v133q35 8 52 32.5t17 66.5v30h-69v283h180v-315q0 -108 -45.5 -166t-134.5 -64z" />
<glyph unicode="&#x201a;" horiz-adv-x="326" d="M72 0v285h180v-316q0 -107 -46 -166t-134 -65v133q34 9 51.5 34t17.5 66v29h-69z" />
<glyph unicode="&#x201c;" horiz-adv-x="600" d="M72 1124v316q0 107 45 165t135 66v-132q-34 -10 -51 -34.5t-17 -66.5v-29h68v-285h-180zM346 1124v316q0 107 45.5 165t134.5 66v-133q-34 -9 -50.5 -33.5t-16.5 -66.5v-29h67v-285h-180z" />
<glyph unicode="&#x201d;" horiz-adv-x="600" d="M72 1118v133q35 8 52 32.5t17 66.5v30h-69v283h180v-315q0 -108 -45.5 -166t-134.5 -64zM346 1118v133q35 8 52.5 32.5t17.5 66.5v30h-70v283h180v-315q0 -108 -45.5 -166t-134.5 -64z" />
<glyph unicode="&#x201e;" horiz-adv-x="600" d="M72 0v285h180v-316q0 -107 -46 -166t-134 -65v133q34 9 51.5 34t17.5 66v29h-69zM346 0v285h180v-316q0 -107 -46 -166t-134 -65v132q35 10 52.5 35t17.5 66v29h-70z" />
<glyph unicode="&#x2022;" horiz-adv-x="1208" d="M307 762q0 123 87 209t210 86q122 0 208.5 -86.5t86.5 -208.5t-87.5 -209.5t-209.5 -87.5q-123 0 -209 87t-86 210z" />
<glyph unicode="&#x2026;" horiz-adv-x="2048" d="M250 0v285h180v-285h-180zM932 0v285h180v-285h-180zM1616 0v285h180v-285h-180z" />
<glyph unicode="&#x2039;" horiz-adv-x="322" d="M49 682l92 573h146l-90 -573l90 -582h-146z" />
<glyph unicode="&#x203a;" horiz-adv-x="322" d="M35 100l90 582l-90 573h147l90 -573l-90 -582h-147z" />
<glyph unicode="&#x2122;" horiz-adv-x="1706" d="M242 1378v80h452v-80h-172v-458h-108v458h-172zM813 920v538h150l151 -385l141 385h150v-538h-98v444l-166 -444h-56l-174 444v-444h-98z" />
<glyph unicode="&#xe000;" horiz-adv-x="1355" d="M0 1355h1355v-1355h-1355v1355z" />
<glyph unicode="&#xfb01;" horiz-adv-x="674" d="M415 0v1356h195v-1356h-195zM415 1475v188h195v-188h-195zM16 1204v152h54v98q0 122 43.5 169.5t148.5 47.5h98v-151h-63q-19 0 -27 -13.5t-8 -52.5v-98h96v-152h-96v-1204h-192v1204h-54z" />
<glyph unicode="&#xfb02;" horiz-adv-x="674" d="M415 0v1663h195v-1663h-195zM16 1204v152h54v98q0 122 43.5 169.5t148.5 47.5h98v-151h-63q-19 0 -27 -13.5t-8 -52.5v-98h96v-152h-96v-1204h-192v1204h-54z" />
<glyph unicode="&#xfb03;" horiz-adv-x="1026" d="M767 0v1356h195v-1356h-195zM767 1475v188h195v-188h-195zM368 1204v152h54v98q0 122 43.5 169.5t148.5 47.5h98v-151h-63q-19 0 -27 -13.5t-8 -52.5v-98h96v-152h-96v-1204h-192v1204h-54zM16 1204v152h54v98q0 122 43.5 169.5t148.5 47.5h98v-151h-63q-19 0 -27 -13.5 t-8 -52.5v-98h96v-152h-96v-1204h-192v1204h-54z" />
<glyph unicode="&#xfb04;" horiz-adv-x="1026" d="M767 0v1663h195v-1663h-195zM368 1204v152h54v98q0 122 43.5 169.5t148.5 47.5h98v-151h-63q-19 0 -27 -13.5t-8 -52.5v-98h96v-152h-96v-1204h-192v1204h-54zM16 1204v152h54v98q0 122 43.5 169.5t148.5 47.5h98v-151h-63q-19 0 -27 -13.5t-8 -52.5v-98h96v-152h-96 v-1204h-192v1204h-54z" />
</font>
</defs>
</svg>
