<?xml version="1.0" encoding="utf-8"?>
<!-- Generator: Adobe Illustrator 14.0.0, SVG Export Plug-In . SVG Version: 6.00 Build 43363)  -->
<!DOCTYPE svg PUBLIC "-//W3C//DTD SVG 1.1//EN" "http://www.w3.org/Graphics/SVG/1.1/DTD/svg11.dtd">
<svg version="1.1" id="Layer_1" xmlns="http://www.w3.org/2000/svg" xmlns:xlink="http://www.w3.org/1999/xlink" x="0px" y="0px"
	 width="800px" height="600px" viewBox="0 0 800 600" enable-background="new 0 0 800 600" xml:space="preserve">
<g>
	<path fill="#231F20" stroke="#231F20" stroke-linecap="round" d="M296.443,303.426h5.216l2.083-7.727h-5.174l0.706-2.605h5.17
		l2.713-10.062h3.347l-2.712,10.062h5.015l2.726-10.062h3.282l-2.726,10.062h5.219l-0.706,2.605h-5.22l-2.093,7.727h5.22
		l-0.706,2.605h-5.221l-2.708,9.995h-3.281l2.708-9.995h-4.998l-2.694,9.995h-3.347l2.694-9.995h-5.188L296.443,303.426z
		 M310.007,303.426l2.093-7.727h-5.012l-2.083,7.727H310.007z"/>
	<path fill="#231F20" stroke="#231F20" stroke-linecap="round" d="M323.167,282.919h4.043v12.309
		c0.958-1.213,1.819-2.066,2.583-2.561c1.303-0.854,2.927-1.28,4.874-1.28c3.489,0,5.854,1.221,7.098,3.661
		c0.674,1.333,1.011,3.182,1.011,5.548v15.431h-4.155v-15.161c0-1.767-0.225-3.062-0.674-3.886
		c-0.734-1.317-2.111-1.977-4.133-1.977c-1.677,0-3.197,0.577-4.56,1.729c-1.363,1.153-2.044,3.332-2.044,6.536v12.758h-4.043
		V282.919z"/>
	<path fill="#231F20" stroke="#231F20" stroke-linecap="round" d="M365.03,294.372c2.126,2.064,3.189,5.102,3.189,9.111
		c0,3.875-0.937,7.076-2.811,9.605c-1.873,2.527-4.78,3.792-8.72,3.792c-3.287,0-5.896-1.118-7.829-3.354
		c-1.933-2.236-2.899-5.24-2.899-9.011c0-4.04,1.019-7.256,3.055-9.649c2.037-2.394,4.773-3.591,8.208-3.591
		C360.301,291.274,362.903,292.307,365.03,294.372z M362.52,310.359c0.985-2.027,1.477-4.281,1.477-6.765
		c0-2.243-0.355-4.068-1.066-5.474c-1.125-2.213-3.064-3.32-5.818-3.32c-2.443,0-4.22,0.942-5.331,2.827
		c-1.11,1.884-1.666,4.157-1.666,6.819c0,2.559,0.555,4.689,1.666,6.394c1.11,1.705,2.872,2.558,5.286,2.558
		C359.717,313.398,361.535,312.385,362.52,310.359z"/>
	<path fill="#231F20" stroke="#231F20" stroke-linecap="round" d="M372.145,291.971h3.841v4.155
		c0.314-0.809,1.085-1.793,2.313-2.954c1.228-1.16,2.643-1.741,4.245-1.741c0.075,0,0.202,0.008,0.382,0.022
		c0.18,0.015,0.486,0.045,0.921,0.09v4.268c-0.24-0.045-0.46-0.075-0.663-0.09c-0.202-0.015-0.423-0.022-0.663-0.022
		c-2.037,0-3.602,0.655-4.694,1.965c-1.093,1.311-1.64,2.819-1.64,4.526v13.836h-4.043V291.971z"/>
	<path fill="#231F20" stroke="#231F20" stroke-linecap="round" d="M399.094,301.469c0.928-0.12,1.55-0.509,1.864-1.167
		c0.179-0.361,0.269-0.879,0.269-1.556c0-1.383-0.49-2.386-1.468-3.01c-0.979-0.624-2.38-0.936-4.203-0.936
		c-2.107,0-3.602,0.572-4.483,1.715c-0.493,0.632-0.814,1.573-0.964,2.822h-3.773c0.075-2.973,1.036-5.042,2.883-6.206
		s3.99-1.746,6.427-1.746c2.827,0,5.123,0.539,6.887,1.617c1.75,1.078,2.625,2.755,2.625,5.032v13.859
		c0,0.42,0.086,0.756,0.258,1.01c0.172,0.255,0.535,0.382,1.09,0.382c0.18,0,0.382-0.011,0.606-0.034
		c0.225-0.021,0.464-0.055,0.719-0.1v2.986c-0.629,0.18-1.108,0.292-1.438,0.337s-0.778,0.067-1.348,0.067
		c-1.393,0-2.403-0.494-3.032-1.482c-0.33-0.523-0.562-1.265-0.696-2.223c-0.824,1.078-2.007,2.014-3.549,2.807
		c-1.542,0.793-3.242,1.19-5.099,1.19c-2.231,0-4.054-0.677-5.469-2.03s-2.123-3.047-2.123-5.081c0-2.228,0.696-3.956,2.089-5.182
		c1.393-1.227,3.219-1.981,5.48-2.267L399.094,301.469z M390.581,312.391c0.854,0.672,1.864,1.008,3.032,1.008
		c1.422,0,2.8-0.328,4.133-0.986c2.246-1.092,3.369-2.878,3.369-5.359v-3.252c-0.494,0.315-1.128,0.578-1.905,0.789
		c-0.777,0.21-1.54,0.359-2.287,0.449l-2.443,0.314c-1.464,0.194-2.565,0.5-3.304,0.919c-1.25,0.702-1.875,1.823-1.875,3.361
		C389.301,310.799,389.728,311.718,390.581,312.391z"/>
	<path fill="#231F20" stroke="#231F20" stroke-linecap="round" d="M425.492,292.633c1.593,0.801,2.806,1.838,3.639,3.111
		c0.805,1.213,1.34,2.628,1.607,4.245c0.238,1.108,0.357,2.875,0.357,5.301H413.6c0.074,2.448,0.646,4.411,1.716,5.89
		c1.069,1.479,2.726,2.219,4.97,2.219c2.094,0,3.766-0.699,5.014-2.098c0.699-0.812,1.193-1.753,1.484-2.821h3.977
		c-0.105,0.884-0.453,1.868-1.045,2.954s-1.252,1.973-1.979,2.661c-1.219,1.198-2.728,2.007-4.524,2.426
		c-0.967,0.239-2.059,0.359-3.277,0.359c-2.977,0-5.498-1.089-7.566-3.269c-2.069-2.178-3.104-5.229-3.104-9.152
		c0-3.863,1.042-7,3.125-9.411c2.084-2.411,4.807-3.616,8.171-3.616C422.256,291.432,423.9,291.833,425.492,292.633z
		 M426.941,302.078c-0.164-1.752-0.543-3.152-1.137-4.2c-1.099-1.946-2.932-2.92-5.501-2.92c-1.841,0-3.386,0.67-4.632,2.01
		c-1.248,1.34-1.908,3.043-1.982,5.11H426.941z"/>
	<path fill="#231F20" stroke="#231F20" stroke-linecap="round" d="M432.776,291.971h5.233l5.525,8.468l5.594-8.468l4.918,0.112
		l-8.107,11.612l8.467,12.331h-5.166l-5.975-9.029l-5.795,9.029h-5.121l8.469-12.331L432.776,291.971z"/>
	<path fill="#231F20" stroke="#231F20" stroke-linecap="round" d="M457.727,285.255h4.088v6.716h3.84v3.302h-3.84v15.7
		c0,0.839,0.283,1.4,0.854,1.685c0.314,0.165,0.838,0.247,1.572,0.247c0.193,0,0.404-0.005,0.629-0.015s0.486-0.035,0.785-0.075
		v3.212c-0.463,0.135-0.947,0.231-1.447,0.292c-0.502,0.06-1.045,0.09-1.629,0.09c-1.887,0-3.168-0.482-3.842-1.449
		c-0.674-0.965-1.01-2.219-1.01-3.762v-15.925h-3.258v-3.302h3.258V285.255z"/>
	<path fill="#231F20" stroke="#231F20" stroke-linecap="round" d="M468.66,291.971h3.84v4.155c0.314-0.809,1.086-1.793,2.314-2.954
		c1.227-1.16,2.643-1.741,4.244-1.741c0.076,0,0.203,0.008,0.383,0.022c0.18,0.015,0.486,0.045,0.92,0.09v4.268
		c-0.238-0.045-0.461-0.075-0.662-0.09c-0.201-0.015-0.424-0.022-0.662-0.022c-2.037,0-3.602,0.655-4.695,1.965
		c-1.092,1.311-1.639,2.819-1.639,4.526v13.836h-4.043V291.971z"/>
	<path fill="#231F20" stroke="#231F20" stroke-linecap="round" d="M495.609,301.469c0.928-0.12,1.549-0.509,1.863-1.167
		c0.18-0.361,0.27-0.879,0.27-1.556c0-1.383-0.488-2.386-1.469-3.01c-0.979-0.624-2.379-0.936-4.201-0.936
		c-2.107,0-3.602,0.572-4.484,1.715c-0.492,0.632-0.814,1.573-0.963,2.822h-3.773c0.074-2.973,1.035-5.042,2.883-6.206
		c1.846-1.164,3.988-1.746,6.428-1.746c2.826,0,5.121,0.539,6.887,1.617c1.75,1.078,2.625,2.755,2.625,5.032v13.859
		c0,0.42,0.086,0.756,0.258,1.01c0.172,0.255,0.535,0.382,1.09,0.382c0.18,0,0.381-0.011,0.605-0.034
		c0.225-0.021,0.465-0.055,0.719-0.1v2.986c-0.629,0.18-1.107,0.292-1.438,0.337c-0.328,0.045-0.777,0.067-1.348,0.067
		c-1.393,0-2.402-0.494-3.031-1.482c-0.33-0.523-0.562-1.265-0.697-2.223c-0.822,1.078-2.006,2.014-3.549,2.807
		c-1.541,0.793-3.242,1.19-5.098,1.19c-2.232,0-4.055-0.677-5.469-2.03c-1.416-1.354-2.123-3.047-2.123-5.081
		c0-2.228,0.695-3.956,2.088-5.182c1.393-1.227,3.221-1.981,5.48-2.267L495.609,301.469z M487.096,312.391
		c0.854,0.672,1.865,1.008,3.033,1.008c1.422,0,2.799-0.328,4.133-0.986c2.246-1.092,3.369-2.878,3.369-5.359v-3.252
		c-0.494,0.315-1.129,0.578-1.906,0.789c-0.777,0.21-1.539,0.359-2.285,0.449l-2.443,0.314c-1.465,0.194-2.566,0.5-3.305,0.919
		c-1.25,0.702-1.875,1.823-1.875,3.361C485.816,310.799,486.242,311.718,487.096,312.391z"/>
</g>
</svg>
